<svg data-name="Layer 1" xmlns="http://www.w3.org/2000/svg" viewBox="-250 0 530 150">
  <path fill="none" d="M0 0h280v150H0z"/>
  <g fill="#103140">
    <g fill-rule="evenodd">
      <path d="M76.217 108.975v-5.3c0-1.215-.574-1.83-1.717-1.83H51.023c-.814 0-1.215-.34-1.215-1.018V46.97a1.526 1.526 0 00-1.726-1.727h-6.377a1.52 1.52 0 00-1.717 1.727v62.004a1.52 1.52 0 001.717 1.73H74.5a1.523 1.523 0 001.718-1.73M86.648 51.86h6.576q1.618 0 1.618-1.736v-9.261a1.435 1.435 0 00-1.618-1.628h-6.576a1.437 1.437 0 00-1.626 1.628v9.261c0 1.157.54 1.736 1.626 1.736M86.749 110.704h6.475a1.77 1.77 0 001.265-.355 2.006 2.006 0 00.353-1.374v-48.46a1.526 1.526 0 00-1.719-1.735h-6.475c-1.087 0-1.626.578-1.626 1.734v48.461a1.525 1.525 0 001.727 1.73M122.56 57.76v-2.444q0-3.97 1.466-5.747 1.467-1.78 5.112-1.78h3.032a1.53 1.53 0 001.727-1.735V40.76q0-1.628-1.727-1.626h-4.449q-7.396 0-11.236 4.07-3.848 4.08-3.845 11.606v2.95c0 .68-.374 1.02-1.113 1.02h-5.364a1.952 1.952 0 00-1.373.362 1.77 1.77 0 00-.351 1.264v5.301a1.523 1.523 0 001.724 1.727h5.364c.739 0 1.113.34 1.113 1.02v40.521a1.52 1.52 0 001.717 1.73h6.377c1.215 0 1.825-.573 1.825-1.73v-40.52a.894.894 0 011.008-1.02h8.504c1.214 0 1.826-.57 1.826-1.728v-5.3c0-1.085-.612-1.627-1.826-1.627h-8.504a.894.894 0 01-1.008-1.02"/>
      <path d="M235.518 43.79q-4.476-4.49-12.645-4.498h-12.802q-8.173 0-12.703 4.499-4.526 4.5-4.527 12.71v36.987q0 8.111 4.527 12.66 4.53 4.554 12.703 4.556h5.074l7.511 12.885a3.778 3.778 0 003.53 1.887h6.182a1.424 1.424 0 001.33-2.335l-7.397-12.77a15.123 15.123 0 0010.1-5.272q3.58-4.383 3.587-11.611V56.5q0-8.208-4.47-12.71zm-6.24 49.255q0 8.222-7.951 8.215h-9.604q-7.957 0-7.95-8.215V56.95q0-8.221 7.95-8.222h9.604q7.949 0 7.951 8.222z"/>
    </g>

    <path d="M151.846 89.322h27.12a1.615 1.615 0 001.826-1.83V74.565q0-7.529-4.155-11.657-4.149-4.122-11.638-4.128h-8.294q-7.495 0-11.594 4.128-4.098 4.12-4.1 11.657v20.362q0 7.428 4.1 11.604 4.097 4.176 11.594 4.173h21.86c1.207 0 1.818-.543 1.818-1.628v-5.09a1.619 1.619 0 00-1.818-1.837h-20.443q-7.398 0-7.391-7.432v-4.375c0-.68.367-1.02 1.115-1.02zm-1.014-14.453c0-2.574.567-4.463 1.718-5.649s3.004-1.786 5.572-1.786h5.562c2.56 0 4.414.601 5.563 1.786 1.151 1.186 1.727 3.075 1.727 5.649v6.513a.9.9 0 01-1.014 1.02h-18.114a.9.9 0 01-1.014-1.02z"/>
    <path d="M249.354 98.935a5.974 5.974 0 105.974 5.974 5.98 5.98 0 00-5.974-5.974zm5.262 5.974a5.263 5.263 0 11-5.262-5.262 5.268 5.268 0 015.262 5.262z"/>
    <path d="M250.748 105.499a2.383 2.383 0 00-.555-.347 2.426 2.426 0 001.48-.645 1.75 1.75 0 00.48-1.248 1.976 1.976 0 00-.29-1.049 1.548 1.548 0 00-.774-.662 4.107 4.107 0 00-1.414-.187h-3.084v6.956h.92v-3.089h1.069a2.762 2.762 0 01.513.034 1.386 1.386 0 01.42.184 2.091 2.091 0 01.467.466q.26.332.664.958l.92 1.447h1.159l-1.21-1.893a4.782 4.782 0 00-.765-.925zm-1.257-1.068h-1.98v-2.301h2.203a1.676 1.676 0 011.131.318 1.036 1.036 0 01.359.811 1.13 1.13 0 01-.185.624 1.05 1.05 0 01-.541.418 2.965 2.965 0 01-.987.13z"/>

    <text style="font-family: Arial, sans-serif; font-size: 70px; font-weight: 700; text-transform: capitalize; white-space: pre;" x="-230" y="110">DEAR</text>
  </g>
</svg>