<svg xmlns="http://www.w3.org/2000/svg" width="1440" height="1917" fill="#06ba4f" opacity=".2" fill-rule="evenodd" xmlns:v="https://vecta.io/nano"><path d="M1156.58 1868.57c-27.49-4.19-51.61 17.39-74.14 48.43h4.4c21.34-28.61 43.69-47.32 69.54-43.3 20.37 3.13 36.61 20.33 50.92 43.3h4.07c-15.23-25.5-32.56-45.02-54.79-48.43zm-327.31-2.89c-22.419 10.37-43.25 29.01-63.169 51.32h5.439c18.469-20.05 37.734-36.66 58.298-46.17 27.782-12.86 42.939 12.13 55.94 46.17h3.259c-13.493-36.07-29.771-65.15-59.767-51.32zm414.33 38.35c-22.67-49.28-46.11-100.23-82.39-107.59-43.15-8.68-77.08 51.29-109.9 109.36l-6.35 11.2h3.93l4.14-7.31c33.9-59.98 65.95-116.63 107.92-108.09 35.31 7.15 57.38 55.15 80.74 105.94l4.36 9.46h3.55l-6-12.97zm-333.05-40.36c-14.84-39.86-30.163-81.05-67.111-60.77-39.509 21.71-73.625 67.48-106.573 112.14h4.594c31.809-43.05 64.815-86.37 102.668-107.18 35.187-19.37 49.367 18.63 64.345 58.86 6.422 17.25 12.95 34.72 21.214 48.32h4.326c-9.393-13.7-16.495-32.67-23.463-51.37zm506.98 52.72l-.77.61h7.1c5.39-4.24 10.76-8.35 16.14-12.16v-5.46c-7.6 5.27-15.06 11.14-22.47 17.01zm-170.32-77.94c-22.85-49.51-46.48-100.68-82.62-110.1-39.58-10.35-68.78 43.3-99.71 100.03-18.23 33.46-36.89 67.7-58.15 88.62h5.6c19.72-21.4 37.2-53.42 54.31-84.81 30.46-55.9 59.21-108.69 97.61-98.72 35.21 9.17 57.48 57.4 81.05 108.47 12.32 26.69 24.88 53.8 39.53 75.06h4.5c-15.78-21.53-29.08-50.3-42.12-78.55zm171.49 26.88c-26.13 17.24-53.15 35.07-84.35 24.69-37.02-12.32-61.24-64.48-84.67-114.91-23.22-49.98-47.22-101.65-83.4-112.94-37.8-11.8-65.95 40.28-95.79 95.38-24.7 45.6-50.24 92.77-82.028 102-32.691 9.57-48.507-26.91-63.799-62.12-15.94-36.71-32.422-74.67-67.561-52.56-37.592 23.67-70.135 69.47-101.592 113.77-14.145 19.91-28.482 40.06-43.381 58.36h4.915c13.685-17.17 26.898-35.75 39.954-54.13 31.309-44.07 63.673-89.65 100.881-113.06 33.522-21.12 48.723 13.94 64.826 51 15.743 36.26 32.024 73.71 66.131 63.86 32.584-9.45 58.424-57.19 83.414-103.33 29.37-54.22 57.09-105.45 93.63-94.05 35.29 11 57.93 59.73 81.89 111.33 23.73 51.09 48.27 103.9 86.16 116.5 31.82 10.59 59.16-7.45 85.58-24.88 6.87-4.53 13.67-8.99 20.49-12.98v-5.33c-7.19 4.14-14.28 8.77-21.3 13.4zm.74-50.39c-26.39 14.16-53.68 28.77-84.72 15.39-35.77-15.45-59.78-66.5-83-115.87-23.63-50.25-48.06-102.19-84.84-116.57-34.52-13.49-66.85 42.88-98.09 97.43-23.78 41.52-46.24 80.74-69.37 91.1-29.628 13.25-46.262-19.99-62.359-52.18-17.316-34.6-35.212-70.42-68.678-46.27-34.334 24.78-64.518 69.38-93.703 112.52-31.269 46.2-63.501 93.72-100.781 116.51h8.276c34.517-24.48 64.705-68.99 94.04-112.33 29.042-42.91 59.067-87.29 93.051-111.82 31.902-23.05 48.45 10.05 65.967 45.06 16.586 33.17 33.749 67.46 64.748 53.58 23.769-10.65 46.479-50.3 70.519-92.27 30.76-53.71 62.55-109.28 95.89-96.25 35.96 14.07 60.1 65.4 83.44 115.04 23.49 49.95 47.78 101.6 84.35 117.39 31.65 13.68 59.24-1.14 85.93-15.45 6.67-3.58 13.28-7.11 19.89-10.23v-5.28c-6.93 3.2-13.77 6.86-20.56 10.5zm-802.641 99.22c-6.065-7.31-12.932-15.59-25.489-19.94l-7.693-2.68c-31.553-11.08-54.361-19.04-87.98-9.34-23.687 6.86-47.268 19.46-70.608 34.8h8.294c20.775-13.07 41.708-23.7 62.693-29.77 33.197-9.62 55.826-1.68 87.144 9.3l7.699 2.68c11.235 3.9 17.761 11.11 23.34 17.79h4.979l-2.379-2.84zm802.951-149.86c-26.8 11.08-54.5 22.56-85.46 6.49-34.38-17.82-58.93-69.07-82.68-118.62-25.73-53.72-50.04-104.47-85.66-115.62-33.29-10.47-61.95 40.49-89.67 89.75-21.46 38.14-43.65 77.58-68.14 89.7-28.121 13.93-45.464-15.71-62.227-44.41-18.115-31.03-36.85-63.08-68.589-37.78-31.855 25.44-59.779 68.57-86.782 110.3-33.328 51.5-67.798 104.75-109.715 124.47-25.708 12.08-54.793-.08-85.587-12.97-28.4-11.89-57.768-24.16-84.411-15.75-41.956 13.23-83.548 43.62-124.031 75.18h7.184c38.386-29.69 77.703-57.61 117.245-70.08 26.192-8.27 55.311 3.91 83.48 15.7 31.087 13.02 60.451 25.3 86.715 12.95 42.465-19.97 77.16-73.58 110.708-125.42 26.864-41.5 54.64-84.43 86.158-109.57 30.267-24.16 47.595 5.5 65.936 36.89 17.257 29.53 35.075 60.13 64.546 45.5 25.1-12.44 47.54-52.3 69.23-90.84 28.53-50.7 55.48-98.51 87.55-88.51 34.75 10.88 58.77 61.01 84.19 114.08 24 50.08 48.8 101.87 83.89 120.06 31.55 16.33 59.56 4.77 86.65-6.43 6.62-2.74 13.17-5.43 19.72-7.76v-5.23c-6.82 2.37-13.56 5.16-20.25 7.92zm-.08-46.43c-27.34 8.18-55.59 16.64-86.54-1.84-33.18-19.82-57.73-69.91-81.48-118.36-26.58-54.22-51.7-105.43-87.82-117.76-32.13-10.93-59.5 38.72-85.98 86.77-19.87 36.04-40.42 73.31-62.97 85.58-26.759 14.57-44.688-11.74-62.026-37.19-18.87-27.72-38.392-56.39-68.576-29.85-29.636 26.01-55.494 68.1-80.503 108.8-31.768 51.68-64.616 105.14-105.455 125.97-26.939 13.76-58.98 3.53-89.961-6.37-28.743-9.18-58.451-18.67-85.025-9.83-46.955 15.62-93.436 51.46-138.384 86.12L349.318 1917h7.426l29.142-22.26c44.828-34.57 91.179-70.31 137.875-85.85 26.147-8.72 55.653.72 84.19 9.83 31.245 9.98 63.555 20.28 91.012 6.29 41.392-21.12 74.465-74.94 106.449-126.99 24.874-40.48 50.598-82.33 79.908-108.07 28.825-25.32 46.879 1.19 65.993 29.27 17.833 26.2 36.275 53.22 64.247 38.04 23.15-12.6 43.93-50.31 64.03-86.76 27.22-49.36 52.9-96.09 83.8-85.48 35.3 12.03 60.12 62.67 86.4 116.27 23.98 48.92 48.78 99.5 82.6 119.69 31.51 18.81 60.06 10.27 87.66 2.01 6.6-1.97 13.24-3.96 19.95-5.58v-5.2c-6.85 1.63-13.61 3.65-20.33 5.66zm5.34-57.77c-10.78 1.15-20.12 3.77-29.16 6.33-20.88 5.87-38.91 10.94-64.49-6.1-32.02-21.33-56.6-70.19-80.36-117.43-27.55-54.75-53.57-106.48-90.3-119.67-31.08-11.21-57.17 37.35-82.39 84.31-18.4 34.26-37.44 69.69-58.32 82.07-25.492 15.11-43.9-7.99-61.708-30.34-19.556-24.54-39.773-49.94-68.59-22.28-27.651 26.55-51.621 67.76-74.794 107.63-30.151 51.86-61.324 105.48-100.991 127.44-28.097 15.5-61.612 7.61-94.032-.05-28.865-6.82-58.704-13.88-85.131-4.68-46.621 16.19-92.905 50.94-137.664 84.57-31.053 23.33-62.72 47.08-94.987 65.1h9.362c29.364-17.35 58.205-38.97 86.537-60.25 44.648-33.54 90.818-68.22 137.198-84.33 26.043-9.05 55.695-2.05 84.377 4.73 32.675 7.72 66.454 15.7 95.031-.12 40.229-22.25 71.627-76.25 101.994-128.48 23.049-39.65 46.875-80.64 74.228-106.9 27.516-26.41 46.246-2.88 66.084 22 18.293 22.97 37.191 46.7 63.826 30.93 21.47-12.72 40.73-48.58 59.35-83.25 25.89-48.21 50.3-93.72 80.16-83.01 35.94 12.92 61.68 64.08 88.93 118.25 23.98 47.67 48.77 96.94 81.37 118.67 26.15 17.42 44.47 12.28 65.67 6.31 8.98-2.52 18.27-5.14 28.94-6.28 5.22-.57 10.13-.81 14.85-.82v-5.18c-4.76 0-9.72.26-14.99.83zm-1.8-45.8c-10.73.3-20.11 2.07-29.19 3.78-21.29 4-39.68 7.49-65.14-10.93-30.93-22.37-55.62-70-79.5-116.07-28.72-55.38-55.84-107.69-93.06-120.71-30.79-10.79-53.45 33.48-77.5 80.33-17.12 33.33-34.81 67.8-55.7 80.88-24.653 15.42-43.531-4.49-61.8-23.75-20.074-21.17-40.834-43.05-68.251-15.04-26.655 27.22-49.378 67.98-71.362 107.39-28.07 50.36-57.101 102.42-94.891 127.69-29.443 19.68-65.054 13.22-99.49 6.95-28.276-5.14-57.513-10.46-83.203-1.23-45.777 16.43-91.205 49.86-135.134 82.18-54.749 40.29-111.36 81.94-169.863 91.96-66.633 11.42-136.31-25.2-203.688-60.61L0 1828.76v5.34l34.781 18.03c58.978 30.99 119.702 62.91 178.785 62.91 8.631 0 17.232-.68 25.781-2.15 58.853-10.08 115.632-51.86 170.535-92.25 43.828-32.26 89.145-65.6 134.702-81.95 25.344-9.09 54.403-3.81 82.507 1.28 34.709 6.33 70.584 12.85 100.551-7.2 38.294-25.6 67.531-78.02 95.803-128.72 21.854-39.2 44.453-79.74 70.805-106.66 26.217-26.76 45.47-6.46 65.86 15.02 18.744 19.75 38.117 40.17 63.79 24.11 21.47-13.45 39.4-48.35 56.73-82.11 23.56-45.89 45.81-89.21 75.24-78.94 36.44 12.74 63.28 64.52 91.71 119.34 24.07 46.44 48.97 94.46 80.42 117.22 26 18.81 44.67 15.28 66.27 11.21 9.02-1.7 18.35-3.47 28.98-3.77 5.89-.16 11.44.03 16.75.53v-5.25c-5.32-.48-10.89-.63-16.79-.45zM5.997 1915.58L0 1912.54v3.04h5.997zm28.898-27.52L0 1870v5.42l34.233 17.74L80.831 1917h11.371c-19.206-8.95-38.353-18.98-57.307-28.94zm1386.246-321.33c-10.69-.47-20.13.52-29.26 1.48-21.79 2.26-40.62 4.23-66.06-15.35-29.94-23.06-54.66-69.13-78.57-113.68-28.61-53.31-58.19-108.42-96.25-121.72-30.08-10.55-51.51 32.7-74.22 78.46-15.91 32.1-32.38 65.28-52.13 78.46-23.64 15.81-42.853-1.15-61.429-17.54-20.631-18.22-41.976-37.05-68.319-8.08-25.123 27.61-46.286 67.79-66.753 106.66-26.487 50.29-53.875 102.31-90.351 128.35-30.312 21.64-67.267 17.16-103.008 12.8-28.094-3.41-57.144-6.94-82.55 2.4-44.798 16.5-89.246 48.51-132.23 79.47-55.359 39.89-112.604 81.11-171.845 90.38-69.547 10.93-142.109-27.81-212.275-65.25L0 1784.68v5.34l35.218 18.56c62.141 33.15 126.144 67.3 188.457 67.3 8.261 0 16.498-.6 24.691-1.89 59.592-9.33 117.005-50.69 172.522-90.67 42.888-30.89 87.23-62.83 131.822-79.25 25.1-9.25 53.991-5.73 81.922-2.34 36 4.39 73.224 8.92 104.04-13.09 36.989-26.41 64.579-78.8 91.262-129.47 20.352-38.64 41.386-78.59 66.212-105.88 25.238-27.72 45.048-10.24 66.028 8.28 19.023 16.78 38.686 34.15 63.306 17.71 20.33-13.57 37.01-47.19 53.15-79.71 22.21-44.77 43.22-87.04 71.92-77.02 37.31 13.04 65.29 65.2 94.93 120.41 24.09 44.9 49 91.32 79.42 114.73 25.94 19.97 45.02 17.99 67.12 15.68 9.08-.93 18.44-1.89 29.06-1.46 6.69.29 12.94.99 18.92 2.03v-5.2c-5.97-1.02-12.2-1.71-18.86-2.01zm-2.34-45.48c-10.68-1.14-20.18-.87-29.37-.61-22.39.62-41.72 1.18-67.24-19.35-29.03-23.39-53.78-67.77-77.71-110.71-29.87-53.55-60.76-108.96-99.78-122.2-29.54-9.98-49.73 32.2-71.08 76.91-14.85 31.07-30.19 63.18-49.03 76.51-22.79 16.13-42.227 1.96-61.024-11.72-21.129-15.37-42.988-31.27-68.419-1.39-23.769 27.91-43.488 67.6-62.558 106-24.903 50.14-50.655 101.98-85.872 128.74-31.123 23.64-69.341 20.94-106.291 18.29-27.749-1.95-56.439-4-81.485 5.39-43.714 16.41-87.067 46.92-128.995 76.43-55.877 39.35-113.66 80.02-173.549 88.41-72.303 10.16-147.567-30.83-220.339-70.43L0 1742.15v5.34l35.376 19.03c65.314 35.54 132.624 72.15 198.192 72.15 7.699 0 15.37-.5 23.011-1.57 60.24-8.43 118.191-49.23 174.231-88.68 41.832-29.45 85.089-59.9 128.606-76.23 24.768-9.29 53.309-7.28 80.918-5.3 37.22 2.64 75.696 5.38 107.304-18.64 35.746-27.15 61.695-79.39 86.794-129.91 18.95-38.17 38.549-77.63 62.03-105.2 24.384-28.64 44.703-13.85 66.221 1.8 19.224 13.99 39.127 28.44 62.767 11.74 19.44-13.74 34.99-46.32 50.04-77.82 20.86-43.7 40.54-85.04 68.78-75.37 38.28 12.98 67.52 65.42 98.47 120.95 24.11 43.22 49.03 87.91 78.48 111.63 26 20.94 45.58 20.35 68.25 19.74 9.14-.27 18.61-.53 29.19.6 7.54.8 14.59 2.11 21.34 3.83v-5.21c-6.71-1.69-13.71-2.99-21.2-3.78zm-2.6-44.42c-10.67-1.72-20.26-2.1-29.53-2.45-23.05-.89-42.95-1.66-68.66-23.06-28.18-23.47-52.94-66.21-76.88-107.54-31.24-53.93-63.54-109.68-103.61-122.53-29.26-9.38-48.14 32.05-68.16 75.88-13.85 30.35-28.18 61.73-46.35 75.29-22.01 16.46-41.616 4.89-60.586-6.3-21.571-12.73-43.886-25.89-68.525 4.95-22.584 28.26-40.963 67.67-58.733 105.78-23.337 50.06-47.467 101.82-81.504 129.28-31.862 25.69-71.217 24.57-109.281 23.5-27.264-.77-55.479-1.57-80.093 7.8-42.475 16.2-84.552 45.25-125.242 73.35-56.328 38.9-114.571 79.12-175.18 86.32-74.52 8.83-152.088-34.41-227.112-76.25L0 1700.59v5.36l36.058 19.9c68.52 38.2 139.156 77.58 207.84 77.58 6.724 0 13.435-.38 20.121-1.17 60.965-7.24 119.381-47.58 175.877-86.59 40.603-28.05 82.589-57.03 124.882-73.15 24.35-9.29 52.411-8.48 79.569-7.72 38.309 1.07 77.943 2.21 110.29-23.88 34.565-27.88 58.896-80.07 82.43-130.53 17.655-37.88 35.914-77.04 58.215-104.95 23.62-29.57 44.409-17.33 66.412-4.36 19.368 11.42 39.396 23.23 62.226 6.19 18.76-14 33.3-45.85 47.36-76.66 19.54-42.79 38-83.13 65.83-74.26 39.35 12.62 71.36 67.89 102.32 121.34 24.1 41.61 49.02 84.63 77.59 108.4 26.15 21.79 46.28 22.56 69.59 23.46 9.24.36 18.79.72 29.39 2.45 8.52 1.37 16.44 3.32 24 5.74v-5.25c-7.5-2.37-15.35-4.3-23.8-5.66zm-2.83-44.25c-10.69-2.24-20.39-3.19-29.77-4.1-23.77-2.3-44.3-4.29-70.28-26.36-27.39-23.28-52.14-64.26-76.08-103.9-32.71-54.14-66.52-110.14-107.73-122.23-28.97-8.44-46.68 32.21-65.42 75.29-12.99 29.87-26.42 60.75-44.06 74.29-29.526 22.67-46.864 9.77-63.625-2.72-18.226-13.57-35.453-26.39-65.146 12.44-22.31 29.17-39.984 68.92-57.081 107.36-21.524 48.41-43.781 98.47-75.49 127.77-31.21 28.83-73.387 28.99-114.178 29.15-27.657.1-53.788.2-76.156 8.81-41.232 15.87-82.052 43.41-121.536 70.04-56.626 38.19-115.181 77.68-176.228 83.75-76.924 7.71-156.844-38.21-234.115-82.56L0 1658.9v5.36l35.755 20.32c71.712 41.15 145.671 83.6 217.637 83.6 5.789 0 11.573-.28 17.333-.85 61.401-6.1 120.129-45.71 176.928-84.02 39.393-26.57 80.136-54.05 121.19-69.85 22.128-8.52 48.139-8.62 75.672-8.73 41.069-.15 83.535-.31 115.258-29.62 32.203-29.76 54.648-80.22 76.344-129.03 16.982-38.18 34.545-77.67 56.568-106.48 28.598-37.39 44.457-25.56 62.813-11.9 16.416 12.22 35.025 26.08 65.462 2.7 18.24-14.02 31.9-45.39 45.09-75.75 18.25-41.97 35.48-81.7 63.08-73.53 40.49 11.86 74.02 67.39 106.45 121.08 24.09 39.87 48.99 81.1 76.73 104.67 26.4 22.44 47.15 24.45 71.16 26.77 9.35.91 19.01 1.84 29.63 4.08 9.55 2 18.44 4.66 26.9 7.87v-5.24c-8.38-3.17-17.18-5.79-26.63-7.77zm.83-29.35c-34.63-11.28-70.44-22.94-106.06-52.27-27.93-22.98-53.21-63.43-77.65-102.53-33.45-53.53-68.04-108.86-109.76-119.63-28.89-7.55-45.43 32.61-62.9 75.06-12.17 29.6-24.77 60.21-42.13 74.26-28.532 23.1-46.047 12.35-62.991 1.99-18.691-11.47-36.351-22.29-65.41 18.16-21.269 29.61-37.704 69.19-53.597 107.47-20.136 48.49-40.958 98.64-71.75 128.56-31.766 30.87-74.779 32.29-116.376 33.66-26.971.89-52.445 1.74-74.376 10.27-41.275 16.03-81.605 41.93-120.61 66.97-55.68 35.76-113.26 72.73-174.004 81.06-79.594 10.88-162.116-39.7-241.911-88.63L0 1616.55v5.41l33.912 20.63c72.552 44.49 147.346 90.35 220.363 90.35 7.517 0 15.015-.49 22.488-1.51 61.061-8.37 118.791-45.44 174.624-81.29 38.928-25 79.186-50.85 120.312-66.84 21.706-8.43 47.069-9.27 73.915-10.16 41.885-1.38 85.186-2.8 117.476-34.18 31.291-30.41 52.296-80.99 72.609-129.91 15.783-38.01 32.098-77.32 53.079-106.52 28.032-39.02 44.323-29.02 63.172-17.47 16.57 10.16 35.333 21.68 64.73-2.14 17.96-14.53 30.77-45.67 43.16-75.76 17-41.32 33.01-80.33 60.57-73.23 40.99 10.6 75.29 65.47 108.46 118.54 24.59 39.34 50.01 80.01 78.29 103.29 35.89 29.54 71.85 41.26 106.63 52.6l26.21 8.82v-5.26c-8.66-3.09-17.26-5.91-25.8-8.69zm-2.89-42.42c-35.55-12.82-72.31-26.07-108.76-56.18-27.2-22.46-52.52-61.18-77-98.62-35.18-53.81-71.56-109.46-114.29-118.08-38.51-7.84-47.34 24.9-57.55 62.77-8.15 30.16-17.38 64.35-43.57 86.56-27.585 23.39-45.239 14.7-62.318 6.29-19.152-9.43-37.233-18.32-65.716 23.55-20.338 29.9-35.616 69.23-50.4 107.27-18.802 48.37-38.237 98.41-68.189 128.78-32.218 32.67-75.912 35.19-118.171 37.62-26.223 1.52-50.986 2.95-72.447 11.3-39.83 15.51-78.696 39.8-116.275 63.29-55.834 34.91-113.573 71-174.677 78.03-81.691 9.37-166.104-44.11-247.747-95.83L0 1576.06v5.42l33.418 21.01c75.48 47.83 153.326 97.16 229.406 97.16 6.437 0 12.864-.36 19.272-1.09 61.426-7.06 119.314-43.26 175.301-78.25 37.517-23.45 76.31-47.71 116.001-63.16 21.245-8.28 45.912-9.7 72.024-11.2 42.543-2.46 86.53-4.99 119.271-38.17 30.465-30.91 50.088-81.41 69.062-130.24 14.674-37.75 29.842-76.8 49.891-106.26 27.514-40.46 44.228-32.22 63.557-22.69 16.671 8.18 35.559 17.5 63.947-6.56 27.04-22.92 36.49-57.96 44.84-88.88 10.18-37.71 18.24-67.45 55.01-60.08 41.99 8.49 78.08 63.67 112.97 117.05 24.62 37.65 50.07 76.58 77.58 99.31 36.72 30.31 73.61 43.6 109.29 56.47l29.16 10.86v-5.28c-9.63-3.79-19.2-7.26-28.69-10.67zm-3.34-42.59c-36.43-14.13-74.1-28.76-111.43-59.43-26.52-21.79-51.83-58.71-76.29-94.4-36.97-53.92-75.2-109.67-119.09-116.13-39.09-5.78-47.21 26.76-56.66 64.39-7.42 29.56-15.82 63.06-41.08 85.66-26.538 23.74-44.308 16.9-61.482 10.29-19.656-7.58-38.208-14.7-66.149 28.49-19.517 30.19-33.73 69.31-47.482 107.14-17.525 48.26-35.649 98.15-64.838 128.91-32.563 34.31-76.767 37.76-119.511 41.08-25.444 1.99-49.478 3.86-70.44 12.01-38.337 14.9-75.681 37.59-111.792 59.54-55.886 33.96-113.673 69.09-175.051 74.72-83.611 7.56-169.733-48.81-253.037-103.42L0 1535.19v5.42l32.832 21.38c78.355 51.37 159.206 104.37 238.325 104.37 5.222 0 10.435-.23 15.633-.71 61.704-5.66 119.655-40.88 175.695-74.94 36.048-21.9 73.32-44.56 111.528-59.41 20.769-8.08 44.702-9.93 70.046-11.91 43.037-3.35 87.543-6.81 120.619-41.68 29.722-31.32 48.029-81.72 65.732-130.44 13.641-37.55 27.739-76.36 46.963-106.08 27.024-41.78 44.189-35.19 64.075-27.52 16.757 6.43 35.76 13.75 63.032-10.65 26.1-23.36 34.72-57.72 42.34-88.04 9.4-37.47 16.78-67.15 54.15-61.56 43.15 6.35 81.07 61.66 117.74 115.15 24.6 35.87 50.03 72.96 76.84 95 37.56 30.88 75.37 45.54 111.93 59.72l32.52 13.06v-5.29c-10.75-4.57-21.43-8.72-32.03-12.84zm-3.78-44.4c-37.28-15.33-75.82-31.18-114.04-62.36-25.88-21.13-51.14-56.38-75.57-90.48-38.83-54.21-78.99-110.24-124.08-114.24-39.66-3.54-47.26 29.12-56.04 66.94-6.77 29.16-14.45 62.23-38.834 85.26-25.541 24.11-43.416 18.93-60.692 13.91-20.116-5.84-39.139-11.37-66.518 33.33-18.787 30.67-31.877 69.84-44.53 107.72-17.02 50.92-33.096 99.03-61.982 129.42-32.395 34.08-74.448 38.12-115.118 42-26.309 2.53-51.164 4.91-73.695 14.79-33.264 14.59-65.913 33.98-97.493 52.73-61.838 36.73-120.249 71.43-184.785 74.81-85.042 4.52-171.845-54.4-255.821-111.32L0 1492.78v5.48l34.157 22.99c81.163 55.01 164.99 111.82 247.483 111.82 3.082 0 6.163-.07 9.24-.25 64.882-3.39 126.178-39.8 185.458-75.01 31.531-18.72 64.137-38.09 97.305-52.64 22.325-9.79 47.064-12.16 73.263-14.66 40.958-3.93 83.304-7.98 116.208-42.59 29.462-31.01 46.473-81.92 62.928-131.15 12.552-37.56 25.526-76.4 44.016-106.58 26.481-43.25 44.097-38.13 64.507-32.22 16.838 4.91 35.928 10.42 62.165-14.35 25.24-23.82 33.12-57.8 40.08-87.77 8.73-37.6 15.53-67.17 53.58-63.94 44.33 3.95 84.17 59.55 122.71 113.32 24.54 34.27 49.92 69.68 76.08 91.03 38.44 31.36 77.1 47.27 114.48 62.64l36.34 15.46v-5.32c-12.03-5.44-23.97-10.35-35.81-15.22zm-3.82-40.39c-38.24-16.48-77.76-33.51-116.93-64.87-25.16-20.13-49.87-52.56-73.76-83.91-40.43-53.07-82.24-107.937-129.55-109.459l-2.45-.047c-39.19 0-46.19 31.566-54.27 68.006-6.17 27.84-13.16 59.39-36.544 82.4-18.893 18.6-38.386 18.2-57.212 17.81-23.908-.5-48.604-.98-70.838 38.73-17.611 31.45-29.405 69.37-40.81 106.05-15.696 50.48-30.518 98.14-59.107 129.05-33.293 35.99-76.968 40.4-119.203 44.67-25.2 2.54-49.003 4.94-70.598 13.62-34.748 13.95-68.069 33.61-100.296 52.61-57.783 34.08-112.364 66.29-174.432 68.39-86.237 2.91-174.471-59.12-259.781-119.14L0 1453.18v5.48l33.725 23.57c83.577 58.78 169.934 119.51 254.76 119.51 1.973 0 3.955-.03 5.928-.1 62.424-2.11 117.168-34.4 175.128-68.6 32.169-18.97 65.433-38.59 100.065-52.5 21.408-8.6 45.12-10.99 70.22-13.52 42.528-4.29 86.5-8.73 120.307-45.28 29.193-31.56 44.193-79.79 60.077-130.87 11.308-36.37 23.006-73.98 40.329-104.92 21.49-38.37 44.621-37.94 69.087-37.41 19.166.4 38.947.79 58.382-18.35 24.232-23.85 31.422-56.3 37.772-84.95 8.02-36.18 14.39-64.928 51.84-64.928.81 0 1.64.02 2.48.039 46.55 1.503 88.03 55.959 128.16 108.619 24 31.49 48.81 64.05 74.21 84.39 39.37 31.51 79.02 48.59 117.35 65.11l40.18 17.93v-5.31c-13.32-6.31-26.53-12.02-39.63-17.66zm-4.11-44.66c-39.4-17.9-80.14-36.41-119.85-67.44-24.7-19.29-48.93-48.32-72.36-76.4-41.83-50.124-85.08-101.961-133.99-103.046l-1.89-.029c-41.26 0-48.15 31.248-56.1 67.325-5.87 26.61-12.518 56.76-34.852 79.57-18.888 19.29-38.597 21.08-57.658 22.8-24.365 2.21-49.56 4.48-72.24 44.12-18.187 31.8-28.79 70.45-39.048 107.83-13.325 48.56-25.906 94.42-53.731 125.27-34.407 38.16-79.445 42.22-123.005 46.14-24.792 2.23-48.211 4.34-69.6 12.36-35.203 13.2-68.198 33.13-100.104 52.39-53.818 32.48-104.65 63.17-164.438 63.6-.432.01-.85.01-1.287.01-87.283 0-176.059-65.11-261.912-128.07L0 1410.28v5.52l33.302 24.26c86.074 63.13 175.056 128.39 262.805 128.39l1.296-.01c60.168-.43 111.173-31.22 165.178-63.83 31.843-19.21 64.766-39.09 99.835-52.24 21.206-7.95 44.539-10.05 69.24-12.29 43.853-3.94 89.203-8.03 124.142-46.77 28.479-31.58 41.832-80.24 54.744-127.32 10.152-36.98 20.645-75.23 38.487-106.42 21.993-38.44 45.629-40.58 70.651-42.84 19.334-1.74 39.331-3.56 58.718-23.36 23.152-23.64 30.002-54.69 36.042-82.1 8.02-36.39 14.2-65.16 55.59-64.2 48.21 1.075 91.15 52.537 132.68 102.31 23.53 28.18 47.85 57.34 72.76 76.79 39.89 31.16 80.73 49.72 120.22 67.66l44.31 20.81v-5.35c-14.68-7.3-29.28-13.96-43.74-20.52zm-1.28-36.54c-41.29-19.38-84-39.43-125.86-71.67-22.71-17.48-45.89-42.19-68.31-66.09-45.16-48.119-91.86-97.878-141.2-98.07h-.37c-44.37 0-51.26 31.129-59.22 67.174-5.585 25.296-11.921 53.986-33.233 76.066-18.413 19.08-38.457 22.98-57.84 26.74-25.377 4.94-51.624 10.04-73.92 49.57-17.808 31.58-27.374 70.31-36.629 107.78-11.745 47.55-22.843 92.47-49.464 122.11-35.03 39.01-81.528 42.86-126.489 46.59-24.403 2.02-47.453 3.93-68.482 11.17-35.165 12.1-67.819 32.06-99.398 51.36-50.535 30.89-98.275 59.91-154.642 58.92-89.15-1.82-179.251-70.39-266.39-136.69L0 1371.82v5.53l32.611 24.67c87.351 66.47 177.672 135.2 267.283 137.03l3.24.03c55.368 0 102.428-28.76 152.189-59.17 31.503-19.25 64.075-39.17 99.082-51.21 20.865-7.17 43.829-9.08 68.145-11.09 45.269-3.76 92.079-7.64 127.652-47.24 27.321-30.44 38.592-76.05 50.52-124.34 9.144-37.03 18.6-75.3 36.028-106.21 21.668-38.4 46.335-43.2 72.447-48.28 19.632-3.82 39.926-7.76 58.781-27.31 22.123-22.92 28.656-52.49 34.412-78.567 7.91-35.796 14.16-64.097 56.84-64.097h.37c48.7.192 95.11 49.654 139.98 97.474 22.5 23.97 45.75 48.76 68.6 66.35 42.03 32.38 84.82 52.45 126.21 71.89l45.61 22.04v-5.34c-15.1-7.69-30.13-14.76-45.02-21.75zm-5.04-40c-41.66-18.96-84.73-38.58-126.58-68.95-21.55-15.65-43.56-37.84-66.86-61.327-47.92-48.294-97.38-98.352-147.66-94.74-46.92 3.276-53.646 33.253-61.437 67.963-5.366 23.903-11.448 50.984-32.366 73.904-18.677 20.46-39.135 25.67-58.93 30.71-25.512 6.5-51.893 13.23-74.054 53-17.554 31.51-26.295 70.28-34.747 107.77-10.522 46.67-20.453 90.74-46.124 120.18-35.371 40.56-83.054 43.53-129.168 46.39-23.827 1.48-46.339 2.87-66.772 9.27-34.69 10.86-67.023 29.86-98.29 48.26-49.253 28.96-95.794 56.29-150.096 53.85-89.136-4.05-178.901-75.25-265.714-144.09L0 1329.86v5.56l30.187 23.81c87.024 69.02 177.005 140.38 266.607 144.45 2.323.11 4.622.16 6.912.16 51.782 0 96.624-26.37 143.976-54.22 31.19-18.34 63.441-37.31 97.963-48.11 20.27-6.34 42.705-7.73 66.456-9.2 46.425-2.89 94.44-5.87 130.377-47.09 26.396-30.27 36.495-75.08 47.194-122.54 8.338-37 16.963-75.25 34.114-106.04 21.556-38.7 46.377-45.01 72.652-51.71 20.031-5.11 40.738-10.38 59.847-31.32 21.677-23.74 27.95-51.666 33.48-76.317 7.747-34.499 13.865-61.745 59.165-64.907a70.03 70.03 0 0 1 4.91-.172c47.88 0 95.44 47.95 141.48 94.357 23.38 23.569 45.46 45.809 67.16 61.569 41.99 30.48 85.15 50.13 126.88 69.14l50.64 23.78v-5.33c-16.8-8.35-33.51-15.97-50.06-23.5zm-2.61-34.13c-42.55-18.16-86.55-36.92-129.36-66.43-21.88-15.109-44.24-36.321-67.9-58.797-49.51-47.008-100.67-95.691-152.19-90.984-48.562 4.373-55.368 33.872-63.245 68.03-5.371 23.298-11.467 49.707-32.136 73.331-18.797 21.47-39.59 27.82-59.697 33.96-25.69 7.85-52.253 15.97-74.328 55.91-17.396 31.48-25.383 70.23-33.111 107.72-9.451 45.85-18.379 89.17-43.31 118.39-35.506 41.6-84.125 43.49-131.146 45.33-23.261.91-45.235 1.77-65.059 7.34-34.243 9.63-66.115 27.41-96.941 44.63-48.288 26.95-93.931 52.41-147.153 48.44-88.863-6.66-177.783-80.14-263.775-151.21L0 1290.73v5.59l26.986 22.21c86.203 71.24 175.339 144.91 264.667 151.6 3.773.28 7.502.42 11.203.42 48.907 0 91.67-23.88 136.747-49.04 30.749-17.16 62.535-34.92 96.605-44.49 19.675-5.53 41.568-6.38 64.752-7.29 47.352-1.85 96.317-3.76 132.403-46.05 25.69-30.1 35.199-76.25 44.395-120.88 7.618-36.95 15.495-75.16 32.458-105.84 21.494-38.9 46.502-46.55 72.979-54.63 20.343-6.22 41.376-12.65 60.591-34.6 21.393-24.449 27.672-51.652 33.206-75.649 7.834-33.966 14.026-60.796 61.008-65.034 50.85-4.526 101.73 43.755 150.96 90.495 23.73 22.533 46.14 43.808 68.17 58.998 42.95 29.62 87.03 48.43 129.66 66.61l53.21 23.5v-5.31c-17.67-8.3-35.27-15.81-52.67-23.24zm-2.84-35.76c-43.42-17.31-88.32-35.21-132.07-63.853-22.26-14.576-44.98-34.948-69.02-56.52-51.09-45.84-103.94-93.282-156.64-87.294-50.243 5.642-56.858 33.509-65.248 68.793-5.438 22.886-11.606 48.824-32.088 73.179-18.936 22.521-40.051 29.935-60.475 37.095-25.829 9.07-52.541 18.45-74.568 58.65-17.295 31.56-24.6 70.47-31.656 108.09-8.491 45.27-16.517 88.03-40.795 117.15-35.708 42.83-85.359 43.49-133.378 44.13-22.469.31-43.694.6-62.712 5.23-33.955 8.27-65.784 24.98-96.566 41.13-47.228 24.79-91.829 48.19-143.031 43.31-88.051-8.45-176.155-84.91-261.36-158.86L0 1251.07v5.64l23.851 20.62c85.421 74.13 173.746 150.79 262.267 159.27a145.2 145.2 0 0 0 13.892.66c45.854 0 86.803-21.49 129.921-44.12 30.696-16.12 62.439-32.78 96.221-41.01 18.874-4.59 40.022-4.87 62.419-5.19 48.365-.64 98.381-1.31 134.693-44.87 25.051-30.04 33.614-75.66 41.885-119.77 6.95-37.04 14.145-75.35 30.974-106.09 21.475-39.19 46.637-48.01 73.277-57.36 20.654-7.25 42.005-14.74 61.344-37.743 21.163-25.17 27.514-51.866 33.11-75.424 8.016-33.721 14.348-60.368 63.056-65.838 51.95-5.815 104.61 41.272 155.42 86.843 24.12 21.639 46.89 42.069 69.28 56.731 43.9 28.731 88.88 46.661 132.37 63.991l56.02 23.23v-5.31c-18.63-8.27-37.18-15.68-55.51-22.99zm2.4-28.18c-46.01-16.606-93.59-33.787-140.14-64.024-20.86-13.546-42.54-31.682-65.5-50.891-54.79-45.82-111.45-93.191-165.69-85.873-51.95 7.012-58.79 34.61-67.45 69.535-5.558 22.432-11.856 47.839-32.203 72.72-19.089 23.34-40.517 31.653-61.238 39.679-25.954 10.064-52.781 20.464-74.803 60.614-17.252 31.48-23.933 70.28-30.384 107.8-7.652 44.46-14.88 86.44-38.573 115.28-35.693 43.44-85.968 42.71-134.554 41.98-21.917-.32-42.614-.63-61.07 3.24-33.437 7.01-64.743 22.48-95.016 37.43-46.186 22.81-89.803 44.38-139.891 37.98-87.557-11.19-174.576-89.85-258.73-165.9L0 1214.22v5.66l20.578 18.55c84.364 76.26 171.604 155.1 259.636 166.35 6.149.79 12.192 1.15 18.164 1.15 43.017 0 81.777-19.14 122.515-39.27 30.187-14.91 61.406-30.33 94.665-37.3 18.303-3.84 38.928-3.54 60.778-3.22 48.974.77 99.605 1.47 135.926-42.73 24.49-29.82 32.208-74.65 39.668-118 6.355-36.93 12.921-75.1 29.688-105.67 21.484-39.18 46.771-48.98 73.545-59.35 20.947-8.126 42.61-16.525 62.107-40.363 20.976-25.656 27.452-51.78 33.164-74.825 8.289-33.442 14.841-59.863 65.296-66.674 53.6-7.241 110.01 39.9 164.52 85.481 23 19.247 44.73 37.422 65.69 51.034 46.73 30.353 94.39 47.557 140.49 64.197l53.57 20.2v-5.35c-17.83-7.18-35.56-13.6-53.11-19.93zm-3.18-36.632c-46.83-15.567-95.25-31.662-142.77-60.751-21.28-13.032-43.37-30.471-66.75-48.929-56.27-44.435-114.48-90.407-169.87-81.533-53.656 8.547-60.784 36.176-69.808 71.142-5.726 22.193-12.211 47.345-32.462 72.861-19.258 24.249-41.045 33.382-62.122 42.226-26.117 10.958-53.131 22.29-74.914 62.676-21.83 40.46-24.806 74.64-27.686 107.7-3.274 37.64-6.374 73.2-38.27 114.81-35.871 46.81-86.319 43.58-135.116 40.42-21.441-1.38-41.688-2.69-59.692.49-32.895 5.8-63.648 20.15-93.389 34.02-45.125 21.05-87.754 40.94-136.68 33.02-86.967-14.08-172.8-95.5-255.811-174.23L0 1174.07v5.73l17.261 16.34c83.217 78.93 169.272 160.55 256.709 174.72 7.612 1.23 15.062 1.78 22.396 1.78 40.21 0 76.752-17.04 115.085-34.93 29.65-13.83 60.312-28.13 93.029-33.91 17.842-3.15 38.021-1.86 59.381-.47 46.891 3.01 100.056 6.43 136.613-41.24 32.841-42.85 36.028-79.49 39.412-118.28 2.804-32.2 5.698-65.51 26.89-104.79 21.259-39.404 46.723-50.092 73.685-61.396 21.297-8.931 43.32-18.179 62.966-42.917 20.851-26.266 27.509-52.089 33.389-74.868 8.654-33.536 15.49-60.031 67.714-68.358 54.85-8.748 112.72 36.983 168.71 81.188 23.43 18.505 45.56 35.974 66.95 49.073 47.67 29.185 96.18 45.309 143.1 60.905l56.71 19.723v-5.279c-18.9-7.116-37.7-13.388-56.29-19.563zm-10.64-38.149c-45.17-13.794-91.88-28.048-138.02-52.515-24.45-12.971-49.12-29.981-75.25-47.977-55.32-38.127-112.47-77.518-166.574-75.115-35.376 1.589-52.666 40.29-70.964 81.27-10.051 22.505-20.443 45.766-34.348 63.906-19.248 25.108-41.448 34.911-62.924 44.397-26.241 11.592-53.376 23.577-75.072 63.625-21.974 40.58-24.528 74.74-27 107.76-2.769 36.98-5.385 71.92-36.408 112.66-35.716 46.88-88.68 41.77-135.403 37.29-20.966-2.02-40.766-3.89-58.301-1.44-32.332 4.56-62.51 17.72-91.689 30.44-44.035 19.2-85.618 37.34-133.431 27.95-86.284-16.92-170.841-100.51-252.614-181.33L0 1135.42v5.77l13.92 13.73c81.984 81.04 166.762 164.84 253.512 181.85 9.058 1.78 17.885 2.58 26.554 2.58 37.444 0 71.76-14.96 107.683-30.61 29.093-12.69 59.174-25.81 91.325-30.34 17.371-2.47 37.099-.57 57.993 1.45 47.117 4.51 100.527 9.67 136.949-38.14 31.992-42.02 34.69-78.06 37.55-116.21 2.405-32.15 4.892-65.39 26.199-104.73 21.177-39.1 46.771-50.415 73.867-62.38 21.701-9.582 44.141-19.49 63.778-45.116 14.193-18.513 24.705-42.042 34.867-64.786 17.913-40.118 34.838-78.016 69.086-79.547 53.627-2.451 110.567 36.854 165.667 74.828 26.17 18.034 50.9 35.073 75.44 48.082 46.27 24.544 93.05 38.826 138.29 52.63 22.22 6.787 44.71 13.66 67.32 21.806v-5.246c-22.49-8.079-44.85-14.923-66.93-21.662zm-3.61-35.713c-45.9-12.632-93.36-25.686-140.32-48.869-24.9-12.305-50.03-28.553-76.64-45.77-56.66-36.649-115.31-74.516-170.358-70.526-36.201 2.647-54.532 42.222-73.948 84.136-10.253 22.128-20.861 45.023-34.584 63.371-19.368 25.897-41.909 36.304-63.711 46.365-26.328 12.152-53.549 24.717-75.216 64.637-22.166 40.81-24.384 75.14-26.525 108.34-2.361 36.59-4.593 71.14-34.824 111.14-35.524 47.01-88.536 40.08-135.302 33.99-20.534-2.68-39.931-5.21-57.01-3.38-31.771 3.38-61.348 15.45-89.956 27.12-42.927 17.51-83.477 34.06-130.143 23.18-85.497-19.91-168.691-106.06-249.149-189.38L0 1095.85v5.83l10.584 10.95c80.664 83.53 164.069 169.9 250.042 189.93 10.478 2.43 20.644 3.51 30.595 3.51 34.742 0 66.83-13.1 100.363-26.77 28.512-11.64 57.998-23.67 89.578-27.03 16.939-1.82 36.249.72 56.702 3.38 47.184 6.16 100.651 13.12 136.901-34.83 31.224-41.31 33.528-77.01 35.966-114.8 2.083-32.29 4.239-65.66 25.704-105.2 21.168-38.992 48.053-51.403 74.045-63.402 22.027-10.167 44.813-20.679 64.574-47.103 13.978-18.694 24.687-41.81 35.045-64.167 19.032-41.09 37.013-79.907 72.139-82.468 54.632-4.028 113.022 33.772 169.462 70.277 25.48 16.478 51.82 33.522 76.82 45.866 47.08 23.25 94.62 36.333 140.58 48.984 23.39 6.426 47.08 12.948 70.9 20.871v-5.256c-23.71-7.856-47.27-14.349-70.54-20.756zm-3.71-32.298c-46.6-11.406-94.78-23.186-142.52-44.973-25.42-11.597-51.06-27.125-78.2-43.564-57.84-35.033-117.62-71.274-173.788-65.561-37.056 3.757-56.516 44.206-77.108 87.032-10.473 21.777-21.307 44.292-34.915 62.782-19.517 26.512-42.379 37.382-64.497 47.887-26.381 12.537-53.66 25.496-75.356 65.092-22.387 40.867-24.345 75.307-26.232 108.597-2.049 36.17-3.988 70.31-33.518 109.41-35.299 46.75-88.181 37.93-134.827 30.2-20.131-3.37-39.149-6.55-55.829-5.33-31.267 2.23-60.216 13.11-88.205 23.64-41.645 15.69-80.971 30.47-126.83 18.74C168.84 1243.56 86.453 1154 6.782 1067.39L0 1060.02v5.9l5.539 6.02c79.886 86.84 162.49 176.62 248.055 198.51 11.678 2.99 22.92 4.29 33.888 4.29 32.472 0 62.467-11.3 93.753-23.07 27.893-10.49 56.741-21.34 87.821-23.57 16.536-1.14 35.467 1.98 55.517 5.32 47.078 7.84 100.425 16.72 136.478-31.03 30.538-40.44 32.539-75.75 34.656-113.13 1.839-32.36 3.735-65.82 25.407-105.373 21.196-38.694 48.148-51.491 74.208-63.874 22.344-10.621 45.446-21.596 65.361-48.645 13.824-18.796 24.754-41.512 35.319-63.481 20.232-42.06 39.34-81.789 75.369-85.451 55.639-5.703 115.269 30.442 172.909 65.351 25.99 15.738 52.86 32.014 78.37 43.65 47.87 21.845 96.12 33.653 142.79 45.069 24.58 6.01 49.49 12.125 74.56 19.745v-5.243c-24.96-7.572-49.77-13.658-74.25-19.64zm-3.78-33.786c-47.26-10.166-96.13-20.679-144.62-41.08-25.99-10.935-53.4-26.531-79.91-41.618-58.91-33.508-119.81-68.121-176.864-60.693-37.92 4.978-58.546 46.471-80.381 90.415-10.713 21.563-21.801 43.867-35.357 62.538-19.694 27.118-42.873 38.37-65.284 49.238-26.415 12.819-53.727 26.061-75.471 65.373-22.67 40.965-24.441 75.655-26.155 109.195-1.834 35.89-3.571 69.81-32.477 108.07-35.049 46.42-87.614 35.65-133.992 26.15-19.766-4.05-38.433-7.99-54.768-7.28-30.696 1.08-59.016 10.99-86.405 20.57-40.521 14.16-78.796 27.57-123.552 14.34-84.144-24.83-165.014-116.95-243.216-206.04l-3.518-4v5.97l2.237 2.55c78.413 89.32 159.489 181.67 244.118 206.66 13.08 3.85 25.599 5.47 37.771 5.47 29.866 0 57.668-9.72 86.607-19.84 27.293-9.54 55.512-19.41 86.001-20.5 16.196-.58 34.776 3.23 54.461 7.26 46.805 9.59 99.859 20.45 135.687-26.97 29.928-39.64 31.723-74.73 33.624-111.88 1.665-32.57 3.388-66.25 25.315-105.881 21.254-38.419 48.245-51.516 74.342-64.172 22.642-10.983 46.056-22.342 66.144-50.007 13.757-18.95 24.927-41.426 35.727-63.163 21.475-43.213 41.764-84.043 78.71-88.886 56.576-7.428 117.286 27.117 175.986 60.51 26.55 15.106 54.01 30.731 80.08 41.695 48.62 20.468 97.56 30.99 144.89 41.167 25.81 5.554 51.97 11.204 78.3 18.507v-5.237c-26.24-7.264-52.31-12.895-78.03-18.431zm-3.82-32.69c-47.89-8.838-97.42-17.982-146.63-36.844-26.58-10.187-54.62-25.071-81.74-39.466-59.84-31.766-121.73-64.603-179.553-55.363-38.798 6.198-60.629 48.486-83.736 93.26-10.992 21.282-22.353 43.291-35.937 62.02-19.916 27.433-43.378 38.863-66.072 49.911-26.42 12.865-53.746 26.16-75.572 64.803-22.838 40.422-24.326 75.807-25.766 110.037-1.522 36.05-2.952 70.1-32.174 104.92-37.119 44.22-84.332 32.85-129.984 21.84-19.988-4.82-38.866-9.38-56.708-9.38-30.12.01-57.806 8.93-84.585 17.54-39.408 12.69-76.627 24.67-120.312 10.1C156.25 1170.55 76.963 1076.61.288 985.759c-.096-.115-.192-.23-.288-.335v6.016c76.56 90.71 155.717 184.18 238.954 211.92 14.419 4.81 28.118 6.76 41.419 6.76 27.384 0 53.064-8.27 79.733-16.86 26.678-8.58 54.259-17.45 84.172-17.45 17.688-.01 36.49 4.52 56.396 9.32 46.084 11.11 93.753 22.61 131.625-22.53 30.365-36.18 31.853-71.51 33.427-108.92 1.397-33.21 2.842-67.558 24.903-106.612 21.35-37.782 48.35-50.934 74.472-63.646 22.92-11.153 46.617-22.698 66.926-50.676 13.762-18.968 25.205-41.13 36.269-62.565 22.766-44.105 44.27-85.771 82.138-91.816 57.426-9.115 119.056 23.569 178.676 55.21 27.17 14.415 55.25 29.326 81.93 39.542 49.32 18.91 98.91 28.064 146.87 36.921 27.05 4.993 54.48 10.092 82.09 16.959v-5.203c-27.54-6.839-54.88-11.918-81.85-16.902zm1.42-32.044c-50.23-7.649-102.16-15.567-153.75-34.834-25.76-9.615-52.57-24.521-80.95-40.299-63.4-35.228-128.961-71.682-184.771-47.785-40.008 17.111-60.053 52.616-83.265 93.72-11.832 20.955-24.063 42.618-40.388 65.154-20.169 27.847-43.91 39.407-66.864 50.594-26.4 12.855-53.702 26.15-75.643 64.292-23.213 40.365-24.715 76.101-26.169 110.68-1.508 35.9-2.933 69.79-31.594 103.51-37.603 44.25-85.565 30.55-131.942 17.3-18.543-5.3-36.053-10.31-52.426-11.44-28.694-2.07-56.914 6.05-84.192 13.83-37.176 10.62-75.61 21.57-115.723 7.15C151.339 1135.76 74.414 1040.95 0 948.411v6.097c74.194 92.252 150.888 186.342 231.432 215.302 13.982 5.05 27.739 7.02 41.299 7.02 25.743 0 50.77-7.14 75.25-14.13 27.163-7.75 55.243-15.77 83.736-13.79 16.233 1.13 33.677 6.1 52.152 11.39 46.809 13.41 95.227 27.22 133.622-17.96 29.818-35.07 31.296-70.27 32.861-107.54 1.411-33.54 2.866-68.224 25.291-107.209 21.461-37.317 48.451-50.459 74.554-63.17 23.184-11.292 47.16-22.967 67.718-51.351 16.459-22.718 29.304-45.475 40.637-65.538 23.885-42.302 42.749-75.718 82.094-92.541 55.205-23.619 120.434 12.654 183.524 47.718 28.44 15.807 55.3 30.732 81.17 40.395 51.73 19.325 103.74 27.252 154.03 34.911 26.57 4.045 53.51 8.177 80.63 14.014v-5.214c-27.06-5.8-53.92-9.922-80.43-13.967zm-3.57-33.632c-50.86-6.309-103.45-12.839-155.78-30.59-26.32-8.932-53.72-23.217-82.73-38.335-64.19-33.462-130.562-68.044-186.914-42.902-40.733 18.191-62.141 54.908-86.923 97.427-12.173 20.882-24.759 42.472-41.045 64.799-20.467 28.072-44.458 39.599-67.656 50.753-26.357 12.667-53.611 25.774-75.686 63.2-23.645 40.069-25.32 77.715-26.804 110.942-1.588 35.66-3.091 69.36-31.267 101.81-37.214 42.86-84.408 27.37-130.037 12.37-18.34-6.02-35.664-11.72-51.844-13.42-28.052-2.96-55.618 4.24-82.272 11.2-36.202 9.46-73.637 19.23-112.733 3.59C146.045 1098.72 71.818 1004.33 0 911.228v6.165c71.582 92.777 145.57 186.407 223.8 217.727 39.514 15.84 77.165 5.99 113.582-3.52 26.535-6.93 53.972-14.09 81.797-11.17 16.037 1.69 33.293 7.36 51.557 13.36 23.554 7.74 47.52 15.63 70.397 15.63 21.883 0 42.768-7.21 61.363-28.63 29.338-33.79 30.898-68.78 32.549-105.83 1.507-33.802 3.062-68.748 25.896-107.457 21.605-36.621 48.557-49.575 74.621-62.108 23.428-11.259 47.654-22.911 68.52-51.51 16.396-22.49 29.035-44.175 41.256-65.153 24.528-42.059 45.7-78.394 85.8-96.298 55.742-24.902 121.802 9.546 185.692 42.855 29.07 15.146 56.52 29.46 82.96 38.431 52.46 17.808 105.12 24.338 156.05 30.657 27.73 3.437 55.84 6.96 84.16 12.312v-5.199c-28.28-5.332-56.33-8.837-84-12.274zm-4.38-33.572c-51.2-4.856-104.15-9.876-156.83-25.997-26.92-8.237-54.98-21.992-84.68-36.542-64.82-31.763-131.851-64.599-188.548-38.191-41.333 19.254-64.08 57.185-90.423 101.104-12.585 20.986-25.598 42.692-42 64.953-20.813 28.238-45.038 39.646-68.467 50.661-26.285 12.367-53.472 25.154-75.701 61.831-24.12 39.771-26.006 77.798-27.667 111.362-1.838 37.105-3.427 69.145-31.176 100.315-36.802 41.33-83.069 24.05-127.81 7.33-18.196-6.8-35.38-13.22-51.441-15.48-27.418-3.9-54.341 2.59-80.371 8.83-35.256 8.46-71.717 17.19-109.839.33C140.75 1062.57 69.211 968.589 0 875.015v6.245c68.957 93.21 140.251 186.38 216.106 219.94 38.563 17.06 75.244 8.26 110.707-.24 25.915-6.22 52.709-12.65 79.881-8.81 15.912 2.24 33.024 8.63 51.144 15.41 24.36 9.1 49.162 18.36 72.744 18.36 20.18 0 39.466-6.78 56.818-26.27 28.92-32.49 30.653-67.37 32.482-104.327 1.694-34.148 3.441-69.465 26.736-107.875 21.772-35.901 48.652-48.545 74.649-60.777 23.655-11.131 48.12-22.644 69.331-51.428 16.503-22.405 29.573-44.187 42.207-65.26 26.088-43.487 48.609-81.055 89.347-100.03 56.093-26.16 122.818 6.552 187.338 38.171 29.76 14.588 57.87 28.362 84.9 36.638 52.82 16.16 105.84 21.188 157.11 26.054 29.14 2.759 58.71 5.594 88.5 10.48v-5.183c-29.76-4.875-59.28-7.71-88.38-10.469zm-3.39-33.171c-51.78-3.543-105.33-7.211-158.67-21.922-26.96-7.432-54.7-18.58-84.07-30.372-65.05-26.137-132.328-53.158-192.218-38.303-40.728 10.102-67.805 56.74-96.48 106.124-12.802 22.056-26.045 44.861-40.68 64.315-21.288 28.308-45.686 39.466-69.283 50.258-26.175 11.974-53.242 24.352-75.687 60.283-24.643 39.456-26.836 77.999-28.766 112-2.107 37.134-3.931 69.194-31.32 99.054-36.35 39.66-81.552 20.6-125.261 2.17-18.115-7.62-35.227-14.83-51.23-17.64-26.799-4.71-53.079 1.13-78.495 6.75-34.334 7.61-69.84 15.47-107.078-2.61C135.466 1026.87 66.595 933.317 0 839.292v6.347c66.331 93.593 134.938 186.311 208.382 221.991 37.676 18.29 73.412 10.38 107.976 2.72 25.287-5.62 51.423-11.4 77.981-6.75 15.85 2.78 32.885 9.97 50.923 17.56 24.98 10.53 50.439 21.27 74.573 21.26 18.543 0 36.303-6.34 52.464-23.96 28.57-31.15 30.552-66.06 32.655-103.018 1.963-34.616 3.998-70.413 27.811-108.534 21.979-35.192 47.558-46.897 74.64-59.284 23.827-10.889 48.461-22.162 70.142-50.988 14.77-19.636 28.075-42.547 40.939-64.699 28.368-48.856 55.157-95.005 95.103-104.914 59.496-14.749 126.541 12.195 191.391 38.236 29.41 11.82 57.19 22.978 84.22 30.429 53.48 14.749 107.1 18.417 158.94 21.97 30.24 2.065 60.93 4.187 91.86 8.527v-5.204c-30.91-4.312-61.56-6.444-91.77-8.508zm-3.26-34.588c-52.33-2.237-106.44-4.551-160.42-17.836-27.63-6.797-56.09-17.539-86.23-28.914-65.3-24.652-132.838-50.148-192.848-33.752-41.294 11.289-69.494 58.643-99.355 108.782-13.411 22.53-27.279 45.828-42.49 65.679-21.696 28.329-46.32 39.08-70.128 49.476-26.054 11.376-52.987 23.135-75.619 58.077-25.224 38.945-27.821 77.929-30.11 112.324-2.472 37.093-4.604 69.129-31.7 97.559-34.929 36.67-77.448 16.78-118.569-2.44-19.368-9.06-37.666-17.61-55.085-20.48-26.693-4.38-51.638.71-75.758 5.67-34.882 7.13-67.824 13.91-105.336-5.89C130.219 988.574 63.998 895.881 0 801.902v6.422c63.725 93.499 129.672 185.328 200.664 222.816 37.963 20.06 71.136 13.24 106.258 6.05 24.004-4.93 48.825-10.04 75.283-5.66 17.227 2.83 35.433 11.35 54.71 20.35 24.48 11.45 49.455 23.13 73.157 23.13 16.555 0 32.491-5.69 47.203-21.14 28.282-29.68 30.605-64.538 33.063-101.467 2.332-35.039 4.747-71.257 29.126-108.897 22.171-34.232 47.63-45.348 74.587-57.117 24.039-10.502 48.898-21.359 70.992-50.206 15.341-20.024 29.271-43.418 42.744-66.044 29.559-49.639 57.485-96.533 98.031-107.611 59.62-16.29 126.922 9.13 192.032 33.695 30.17 11.394 58.68 22.155 86.38 28.981 54.11 13.304 108.29 15.618 160.69 17.864 31.29 1.335 63.05 2.707 95.08 6.442v-5.194c-32.02-3.724-63.75-5.097-95.03-6.431zm-3.07-30.194c-52.86-.95-107.51-1.929-162.09-13.821-28.27-6.162-57.45-16.538-88.34-27.528-65.44-23.275-133.107-47.338-193.092-29.495-41.789 12.43-71.103 60.507-102.14 111.406-14.088 23.093-28.651 46.973-44.476 67.197-22.008 28.122-46.824 38.335-70.824 48.221-25.968 10.692-52.82 21.74-75.672 55.641-25.858 38.344-28.964 77.821-31.7 112.653-2.923 37.116-5.443 69.175-32.299 96.105-34.406 34.49-75.595 13.13-115.43-7.51-19.407-10.07-37.743-19.57-55.277-22.963-26.251-5.096-50.597-.335-74.141 4.253-33.917 6.6-65.942 12.82-102.729-8.159C125.03 954.54 61.43 862.849 0 769.132v6.517c61.138 93.179 124.459 183.949 192.979 223.033 37.258 21.238 69.523 14.968 103.695 8.328 23.414-4.57 47.635-9.259 73.636-4.26 17.333 3.35 35.573 12.81 54.879 22.82 24.753 12.84 50.025 25.94 74.016 25.94 15.062 0 29.621-5.16 43.224-18.8 28.051-28.13 30.792-63.005 33.696-99.939 2.793-35.503 5.678-72.216 30.681-109.294 22.397-33.219 47.78-43.672 74.655-54.729 24.23-9.982 49.286-20.3 71.697-48.931 15.951-20.387 30.576-44.372 44.722-67.562 30.754-50.428 59.803-98.054 100.882-110.282 59.577-17.719 127.028 6.267 192.258 29.475 30.93 11 60.15 21.395 88.5 27.576 54.72 11.921 109.43 12.9 162.35 13.85 32.29.586 65.06 1.171 98.13 4.271v-5.183c-33.07-3.1-65.83-3.685-98.1-4.271zm-2.89-33.763c-53.36.316-108.51.632-163.65-9.887-28.88-5.513-58.76-15.534-90.39-26.138-65.43-21.956-133.092-44.649-192.904-25.517-42.202 13.495-72.596 62.087-104.765 113.541-14.842 23.727-30.187 48.267-46.685 68.778-22.277 27.689-47.27 37.212-71.438 46.419-25.901 9.868-52.685 20.071-75.792 52.775-26.535 37.547-30.255 77.458-33.533 112.67-3.461 37.097-6.447 69.141-33.125 94.431-33.835 32.1-73.579 9.42-112.013-12.503-19.512-11.131-37.939-21.64-55.689-25.507-25.858-5.618-49.628-1.139-72.61 3.197-32.976 6.221-64.123 12.098-100.291-9.992C119.928 915.786 58.896 825.55 0 732.577v6.595c58.589 92.37 119.333 181.648 185.366 221.971 36.663 22.358 68.055 16.452 101.295 10.193 22.848-4.307 46.478-8.757 72.081-3.206 17.53 3.809 35.861 14.27 55.258 25.334 24.878 14.196 50.29 28.686 74.462 28.676 13.628 0 26.861-4.6 39.375-16.46 27.878-26.438 31.123-61.277 34.565-98.173 3.345-35.92 6.806-73.056 32.486-109.397 22.646-32.044 47.966-41.691 74.774-51.904 24.404-9.303 49.637-18.912 72.322-47.118 16.637-20.673 32.04-45.299 46.934-69.122 31.901-51.013 62.031-99.194 103.56-112.478 59.386-18.989 126.842 3.627 192.072 25.506 31.67 10.634 61.59 20.664 90.56 26.196 55.27 10.538 110.52 10.251 163.9 9.906 33.23-.191 66.95-.373 100.99 2.068v-5.178c-34.05-2.431-67.77-2.249-100.99-2.058zm-2.58-33.581c-53.82 1.513-109.49 3.093-165.19-6.146-29.14-4.825-59.68-15.988-92-27.801-65.71-24.011-133.65-48.845-191.605-18.525-43.982 23.005-73.853 67.369-105.48 114.327-16.017 23.781-32.582 48.385-51.883 71.735-22.565 27.276-47.741 35.94-72.091 44.326-25.637 8.827-52.147 17.96-75.303 48.921-27.278 36.466-31.857 77.231-35.894 113.189-4.224 37.624-7.877 70.107-34.445 93.792-32.817 29.235-71.025 4.931-107.981-18.591-19.987-12.724-38.87-24.739-57.019-28.922-25.848-5.965-48.917-1.149-71.222 3.513-31.704 6.635-61.647 12.877-97.651-10.588C114.845 877.999 56.366 788.955 0 696.675v6.682c56.05 91.639 114.23 179.677 177.859 221.141 36.533 23.8 66.744 17.491 98.731 10.808 22.162-4.633 45.077-9.42 70.656-3.523 17.895 4.126 36.658 16.065 56.525 28.711 25.066 15.96 50.698 32.273 75.029 32.273 11.99-.01 23.669-3.964 34.8-13.891 27.754-24.729 31.718-60.008 35.914-97.364 4.123-36.734 8.39-74.712 34.809-110.039 22.695-30.338 48.927-39.376 74.295-48.107 24.59-8.473 50.016-17.223 72.993-45.015 19.416-23.475 36.029-48.146 52.09-72.003 31.421-46.652 61.099-90.72 104.592-113.476 57.408-30.032 125.057-5.304 190.477 18.611 32.4 11.843 62.99 23.025 92.26 27.869 55.83 9.258 111.55 7.678 165.44 6.165 34.04-.967 68.61-1.914 103.53-.143v-5.18c-34.93-1.761-69.51-.804-103.57.153zm-1.92-35.343c-54.46 2.595-110.77 5.267-167.02-2.739-29.38-4.185-59.7-14.404-91.8-25.226-63.95-21.558-130.066-43.853-187.776-14.643-46.992 23.78-79.464 69.472-113.847 117.836-16.545 23.272-33.653 47.339-53.251 70.334-22.81 26.758-47.837 33.864-72.043 40.731-24.893 7.058-50.631 14.356-73.752 43.116-21.61 26.883-30.101 68.945-38.314 109.619-8.433 41.765-16.397 81.223-37.925 100.022-33.417 29.23-71.347.23-108.024-27.802-18.398-14.068-37.42-28.606-55.248-35.023-26.064-9.376-49.579-2.05-72.312 5.028-28.32 8.82-57.604 17.947-91.857-5.737C109.546 837.787 53.717 749.305 0 657.796v6.81c53.386 90.79 108.907 178.219 170.496 220.808 34.867 24.106 64.474 14.883 93.101 5.957 22.526-7.02 45.821-14.279 71.457-5.047 17.588 6.33 35.65 20.141 54.773 34.755 26.093 19.94 52.8 40.358 78.307 40.358 10.824 0 21.437-3.678 31.69-12.632 22.493-19.662 30.653-60.068 39.288-102.839 8.059-39.907 16.387-81.165 37.286-107.167 22.652-28.176 48.116-35.397 72.74-42.378 24.456-6.944 49.742-14.117 72.988-41.392 19.695-23.11 36.845-47.244 53.434-70.574 34.181-48.086 66.466-93.5 112.992-117.041 57.178-28.932 123.038-6.742 186.708 14.73 32.16 10.831 62.54 21.079 92.04 25.283 56.38 8.026 112.75 5.344 167.27 2.749 34.67-1.657 69.88-3.295 105.43-2.222v-5.172c-35.58-1.072-70.8.575-105.49 2.222zm-1.43-30.802c-55.17 3.589-112.2 7.302-168.95.459-29.01-3.493-58.96-12.746-90.67-22.546-62.75-19.388-127.625-39.427-184.294-11.359-50.524 25.034-87.024 73.601-125.664 125.028-16.156 21.494-32.86 43.715-51.172 65.017-22.968 26.709-47.775 31.695-71.765 36.518-24.197 4.871-49.219 9.905-72.403 37.111-22.57 26.508-32.42 69.61-41.948 111.296-9.696 42.442-18.854 82.529-40.646 100.779-32.89 27.551-69.749-5.091-105.394-36.662-18.662-16.517-37.958-33.609-56.198-41.398-26.914-11.484-50.03-1.57-72.389 8-26.453 11.34-53.813 23.044-87.398-1.426C103.992 801.151 50.962 711.789 0 620.858v6.938c50.616 90.185 103.339 178.38 163.301 222.075 34.291 24.996 62.016 13.12 88.829 1.627 22.099-9.465 44.947-19.264 71.304-7.991 17.976 7.665 37.147 24.642 55.689 41.064 26.491 23.455 53.64 47.494 79.599 47.494 9.47 0 18.782-3.196 27.849-10.785 22.728-19.044 32.088-60.021 42.005-103.41 9.355-40.949 19.032-83.305 40.906-108.98 22.689-26.642 47.424-31.619 71.342-36.423 24.269-4.88 49.358-9.933 72.811-37.207 18.379-21.369 35.117-43.647 51.303-65.179 38.448-51.169 74.764-99.496 124.857-124.311 56.146-27.828 120.765-7.866 183.265 11.446 31.77 9.818 61.78 19.091 90.91 22.604 56.87 6.842 113.96 3.138 169.19-.45 35.15-2.287 70.84-4.575 106.84-4.182v-5.168c-36.04-.392-71.75 1.904-106.92 4.182zm.66-32.563c-55.35 4.799-112.58 9.761-169.52 4.281-29.69-2.873-59.93-10.843-91.95-19.292-60.66-15.997-123.377-32.55-180.742-11.035-53.002 19.877-92.011 71.355-133.31 125.861-16.872 22.271-34.32 45.3-52.714 65.799-23.083 25.74-47.63 28.786-71.371 31.746-23.794 2.96-48.394 6.016-71.731 31.64-23.684 26.007-34.781 69.938-45.509 112.421-10.877 43.04-21.149 83.694-43.579 101.569-32.756 26.132-68.66-9.963-103.373-44.869-18.84-18.929-38.314-38.518-56.914-47.599-26.587-12.99-50.323-2.089-73.281 8.468-25.916 11.907-52.714 24.216-83.583 1.561C99.898 760.885 48.974 675.361 0 586.284v6.984c48.629 88.272 99.226 172.636 155.27 213.779 31.599 23.201 58.776 10.709 85.056-1.38 22.661-10.422 46.095-21.189 72.087-8.477 18.307 8.947 37.656 28.383 56.361 47.196 26.708 26.851 54.106 54.391 80.54 54.391 8.438 0 16.776-2.807 24.964-9.34 23.338-18.612 33.826-60.109 44.924-104.049 10.56-41.775 21.475-84.977 44.448-110.218 22.828-25.069 47.136-28.086 70.646-31.018 24.029-2.988 48.878-6.073 72.475-32.377 18.475-20.596 35.962-43.681 52.877-66.001 41.074-54.209 79.872-105.41 132.36-125.095 56.947-21.361 119.462-4.866 179.922 11.083 30.66 8.085 62.37 16.448 92.17 19.322 57.05 5.517 114.35.526 169.75-4.273 34.93-3.027 70.39-6.083 106.15-6.552v-5.192c-35.8.479-71.3 3.535-106.26 6.572zm4.66-31.046c-55.53 6.404-112.95 13.056-170.09 8.637-30.71-2.358-63.47-10.784-95.15-18.942-59.79-15.386-121.613-31.309-178.224-10.363-54.878 20.294-98.419 75.05-140.52 128.005-17.342 21.808-35.28 44.355-53.914 64.467-23.544 25.413-48.014 26.314-71.683 27.196-23.347.862-47.491 1.754-70.997 25.815-24.758 25.337-37.08 69.701-48.998 112.609-12.048 43.397-23.434 84.387-46.651 102.208-33.211 25.471-68.208-13.977-102.063-52.139-18.897-21.301-38.433-43.33-57.364-53.616-27.082-14.686-49.076-1.543-70.349 11.168-26.271 15.702-51.067 30.542-85.152-2.166C94.253 702.646 46.219 621.834 0 539.383v6.931C45.826 627.941 93.48 707.65 146.122 758.14c34.977 33.571 61.435 17.744 87.019 2.464 20.923-12.51 42.561-25.451 68.923-11.13 18.619 10.104 38.016 31.97 56.774 53.117 26.679 30.072 54.058 60.949 81.034 60.94 7.786 0 15.538-2.569 23.227-8.474 24.101-18.502 35.707-60.288 47.995-104.538 11.727-42.227 23.852-85.892 47.909-110.509 22.978-23.506 46.81-24.388 69.869-25.241 23.971-.891 48.763-1.802 72.859-27.809 18.715-20.198 36.687-42.793 54.063-64.65 43.828-55.12 85.224-107.183 139.612-127.295 56.232-20.792 117.834-4.927 177.414 10.411 31.74 8.167 64.56 16.613 95.39 18.981 57.28 4.409 114.74-2.224 170.34-8.637 33.39-3.854 67.27-7.756 101.45-9.309v-5.176c-34.23 1.553-68.16 5.454-101.6 9.308zm5.05-33.603c-55.68 7.96-113.25 16.197-170.55 12.843-31.34-1.825-64.99-11.133-97.54-20.134-59.46-16.427-120.942-33.408-175.902-8.725-56.453 25.371-100.935 76.849-148.018 131.365-17.616 20.383-35.832 41.473-54.696 61.024-24.043 24.922-48.374 23.441-71.856 22.036-22.925-1.385-46.613-2.8-70.373 19.666-25.925 24.53-39.557 69.214-52.737 112.416-13.301 43.613-25.868 84.799-49.949 102.42-33.869 24.798-68.275-18.07-101.549-59.524-18.744-23.345-38.131-47.492-57.086-58.94-25.887-15.634-49.253-8.266-69.298 21.701-24.754 27.292-53.462 23.011-85.334-12.719C90.917 647.011 46.618 569.322 0 486.558v6.928c46.099 81.798 89.995 158.427 137.29 211.434 32.707 36.666 62.27 40.947 88.012 12.547 19.503-29.117 42.092-36.217 67.143-21.09 18.624 11.247 37.857 35.214 56.462 58.377 26.794 33.379 54.312 67.656 82.032 67.656 7.253 0 14.52-2.351 21.787-7.664 24.932-18.242 37.724-60.183 51.269-104.589 12.984-42.553 26.405-86.558 51.629-110.419 23.194-21.94 46.579-20.545 69.182-19.179 23.847 1.424 48.495 2.924 73.133-22.619 18.917-19.608 37.162-40.717 54.802-61.148C799.656 442.496 843.96 391.209 900.029 366c54.485-24.482 115.741-7.558 174.981 8.821 32.61 9.011 66.33 18.337 97.81 20.172 57.44 3.335 115.07-4.883 170.82-12.853 31.72-4.539 63.9-9.116 96.36-11.62v-5.179c-32.53 2.513-64.77 7.1-96.55 11.649zm5.45-31.603c-55.79 9.576-113.5 19.469-170.88 17.039-32.15-1.354-66.69-10.959-100.08-20.257-58.32-16.214-118.622-32.994-172.65-9.183-57.912 25.512-104.626 77.552-154.09 132.638-18.384 20.488-37.397 41.657-56.875 61.137-24.586 24.57-48.643 20.507-71.914 16.578-22.493-3.803-45.744-7.742-69.84 13.438-27.187 23.869-42.211 69.272-56.741 113.187-14.62 44.203-28.435 85.947-53.443 103.438-34.248 23.936-67.593-21.977-99.835-66.391-18.941-26.088-38.525-53.069-58.123-65.642-26.069-16.713-49.671-9.278-69.975 21.967-24.446 28.134-52.824 24.148-84.34-11.872C85.133 600.038 43.574 526.079 0 447.038v7.002c43.051 78.051 84.206 150.916 128.827 201.919 32.367 36.999 61.613 40.976 87.063 11.69 19.732-30.352 42.523-37.527 67.747-21.343 19.238 12.352 38.664 39.103 57.446 64.979 26.467 36.461 53.664 73.921 81.84 73.921 6.715 0 13.488-2.132 20.314-6.906 25.843-18.067 39.883-60.522 54.758-105.464 14.319-43.291 29.127-88.06 55.613-111.314 23.501-20.632 46.421-16.752 68.587-13.015 23.621 3.995 48.053 8.116 73.287-17.107 19.531-19.527 38.572-40.736 56.98-61.233 49.287-54.913 95.842-106.761 153.38-132.109 53.587-23.6 113.658-6.897 171.748 9.259 33.47 9.308 68.07 18.932 100.37 20.296 57.57 2.449 115.31-7.473 171.16-17.059 29.93-5.138 60.27-10.316 90.88-13.668v-5.196c-30.69 3.352-61.1 8.548-91.1 13.697zm5.81-29.11c-55.83 11.054-113.61 22.491-171.01 20.914-32.88-.898-68.21-10.844-102.38-20.455-57-16.032-115.93-32.618-168.902-10.051-58.973 25.127-109.839 79.166-159.029 131.418-19.474 20.685-39.605 42.076-60.058 61.5-25.185 23.933-47.846 17.398-71.837 10.491-22.056-6.354-44.856-12.918-69.417 6.793-28.546 22.92-45.048 68.637-61.008 112.854-16.008 44.35-31.128 86.236-57.154 103.338-34.603 22.729-66.84-25.519-98.016-72.182-19.161-28.682-38.976-58.347-59.381-71.867-26.39-17.484-50.294-9.802-70.929 22.634-24.197 28.94-52.315 25.453-83.583-10.385C79.555 552.638 40.627 483.294 0 408.905v7.003C40.104 489.285 78.634 557.54 120.71 605.75c32.141 36.832 61.152 40.309 86.348 10.147 20.035-31.481 43.128-38.886 68.64-21.975 20.006 13.261 39.648 42.66 58.646 71.102 26.045 38.981 52.819 79.061 81.442 79.061 6.225 0 12.532-1.891 18.94-6.105 26.828-17.637 42.188-60.182 58.45-105.23 15.739-43.615 32.021-88.72 59.87-111.077 23.904-19.194 46.359-12.726 68.074-6.468 23.323 6.717 47.438 13.653 73.33-10.939 20.505-19.481 40.66-40.902 60.163-61.615 49.032-52.08 99.729-105.937 158.347-130.922 52.517-22.385 111.22-5.856 168 10.118 34.24 9.631 69.66 19.596 102.7 20.504 57.62 1.586 115.41-9.87 171.31-20.943 28.01-5.551 56.39-11.15 85.03-15.182v-5.178c-28.72 4.041-57.19 9.659-85.29 15.229zm6.19-35.465c-55.8 12.607-113.49 25.617-170.93 24.829-34.12-.489-70.59-10.417-105.87-20.019-54.63-14.863-111.135-30.244-163.124-12.741-59.179 19.904-109.925 73.701-159 125.721-22.142 23.466-45.043 47.738-68.112 68.122-26.15 23.12-48.979 14.238-73.152 4.829-21.336-8.305-43.406-16.889-67.55-.845-29.088 19.328-47.597 66.749-65.501 112.615-17.875 45.798-34.767 89.062-61.138 105.385-34.925 21.622-64.675-27.019-96.173-78.492-19.435-31.761-39.528-64.598-60.82-78.837-27.999-18.703-50.386-2.17-72.029 13.826-25.647 18.944-49.872 36.85-83.285 1.892C71.602 502.498 34.925 437.315 0 370.585v7.172c34.522 65.789 70.824 129.782 113.016 173.929 34.43 36.025 60.331 16.879 85.382-1.622 21.226-15.689 43.167-31.915 70.311-13.759 20.841 13.922 40.747 46.461 60 77.925 25.584 41.814 51.897 84.818 80.985 84.818 5.751 0 11.612-1.68 17.592-5.386 27.154-16.803 45.082-62.736 62.42-107.152 17.664-45.26 35.928-92.058 64.272-110.876 23.505-15.612 45.23-7.163 66.24 1.008 23.5 9.14 47.793 18.588 74.697-5.175 23.151-20.461 46.09-44.772 68.275-68.285 48.893-51.829 99.452-105.423 158.218-125.193 51.619-17.349 107.912-2.035 162.342 12.78 35.36 9.62 71.92 19.567 106.2 20.057 57.59.739 115.36-12.232 171.23-24.858 25.98-5.876 52.29-11.8 78.82-16.409v-5.213c-26.64 4.628-53.04 10.58-79.1 16.466zm6.53-32.623c-55.33 13.958-112.53 28.386-169.49 28.386h-1.06c-34.71-.106-71.84-10.756-107.74-21.052-52.97-15.204-107.737-30.906-158.214-14.638-59.606 19.23-111.619 72.214-161.918 123.444-23.789 24.234-48.389 49.293-73.013 69.798-26.899 22.394-49.195 10.468-72.797-2.157-20.908-11.187-42.532-22.729-67.363-7.947-30.542 18.195-50.736 66.251-70.267 112.726-19.421 46.216-37.762 89.863-65.28 105.661-35.386 20.276-64.267-30.542-94.838-84.389-19.58-34.491-39.831-70.153-61.906-84.992-28.32-19.039-50.952-1.237-72.83 15.99-25.82 20.323-50.208 39.496-83.828 4.409C66.902 451.708 32.578 391.17 0 328.686v7.171c32.179 61.525 66.139 120.894 105.686 162.163 34.666 36.17 60.749 15.655 85.978-4.189 21.456-16.872 43.642-34.319 71.054-15.894 21.576 14.504 41.626 49.82 61.018 83.967 25.229 44.433 51.182 90.15 80.909 90.15 5.323 0 10.771-1.466 16.358-4.668 28.282-16.24 47.736-62.532 66.552-107.31 19.282-45.89 39.221-93.333 69.019-111.087 24.135-14.38 45.394-3.01 65.952 7.985 22.983 12.28 46.748 24.992 74.468 1.927 24.71-20.582 49.358-45.679 73.19-69.961 50.122-51.048 101.952-103.85 161.155-122.936 50.083-16.163 104.661-.499 157.431 14.638 35.99 10.325 73.21 21.004 108.11 21.119h1.06c57.13 0 114.41-14.456 169.82-28.433l72.24-17.064v-5.205c-24.43 5.013-48.64 11.091-72.57 17.13zm-1.98-33.038c-52.79 16.25-107.39 33.054-161.01 33.378h-.95c-34.89 0-72.15-11.422-108.19-22.471-51.17-15.687-104.081-31.89-152.906-16.975-59.77 18.292-112.733 70.086-163.959 120.172-25.661 25.095-52.19 51.04-78.619 71.574-27.739 21.546-49.402 6.508-72.336-9.437-20.434-14.217-41.568-28.884-67.253-15.353-32.112 16.918-54.077 65.525-75.321 112.529-21.02 46.508-40.877 90.439-69.61 105.563-35.846 18.893-63.854-33.855-93.494-89.657-19.752-37.194-40.172-75.649-63.178-90.897-28.728-19.007-51.677.182-73.877 18.779-26.112 21.861-50.769 42.51-84.758 7.538C62.486 401.297 30.37 345.524 0 287.461v7.147c29.981 57.089 61.728 111.717 98.798 149.857 35.074 36.097 61.445 14.007 86.952-7.367 21.759-18.206 44.252-37.042 72.053-18.626 22.464 14.876 42.672 52.939 62.213 89.743 24.835 46.756 50.395 94.886 80.794 94.886 4.92 0 9.964-1.26 15.153-3.989 29.477-15.515 50.52-62.071 70.872-107.099 20.986-46.441 42.691-94.476 74.059-110.993 24.908-13.13 45.663 1.279 65.732 15.239 22.372 15.534 45.499 31.622 74.131 9.37 26.534-20.611 53.117-46.613 78.821-71.747 51.052-49.923 103.833-101.536 163.209-119.704 48.442-14.819 101.153 1.345 152.113 16.966 36.47 11.192 74.07 22.681 109.55 22.538 53.81-.325 108.5-17.166 161.4-33.445 24.47-7.528 49.23-15.114 74.15-21.183v-5.2c-25.07 6.097-49.95 13.721-74.55 21.297zm7.09-37.222c-52.41 17.546-106.6 35.696-159.83 36.385-35.31.46-73.37-12.243-110.01-24.544-49.24-16.512-100.15-33.599-147.27-19.949-59.692 17.288-113.308 68.137-165.153 117.311-29.007 27.511-56.405 53.491-84.859 74.12-28.704 20.782-49.618 2.383-71.765-17.116-19.915-17.518-40.517-35.667-67.224-23.28-34.123 15.794-57.586 64.202-80.28 111.002-21.375 44.091-43.474 89.695-74.568 108.552-36.879 22.4-68.458-40.788-98.995-101.86-19.623-39.238-38.156-76.303-57.706-90.939-29.126-21.816-52.675-.038-75.446 21.04-25.277 23.395-51.418 47.595-85.877 12.693C58.358 345.687 28.306 294.206 0 240.102v7.17c27.922 53.118 57.629 103.469 92.386 138.686 35.568 36.041 62.294 11.296 88.137-12.616 23.319-21.567 45.336-41.947 73.45-20.887 19.017 14.234 37.358 50.916 56.774 89.742 26.626 53.242 54.024 108.044 85.445 108.035 5.266 0 10.642-1.532 16.142-4.873 31.738-19.26 54.077-65.341 75.677-109.901 23.467-48.399 45.624-94.117 79.003-109.567 25.887-11.975 46.066 5.791 65.592 22.974 21.639 19.049 44.021 38.74 73.695 17.24 28.574-20.705 56.021-46.743 85.085-74.302 51.676-49.011 105.115-99.688 164.419-116.87 46.695-13.536 97.415 3.484 146.465 19.939 36.1 12.11 73.4 24.63 108.54 24.63l1.91-.019c53.44-.699 107.74-18.877 160.25-36.461 22.13-7.409 44.5-14.876 67.03-21.136v-5.237c-22.68 6.299-45.19 13.823-67.46 21.28zm17.45-31.785c-54.91 17.938-111.69 36.496-168.28 37.452-35.74.745-73.58-13.439-110.27-27.022-47.19-17.489-96-35.56-141.326-23.334-59.415 16.008-113.405 65.523-165.61 113.405-31.334 28.731-60.931 55.876-91.613 76.317-29.779 19.809-49.853-1.949-71.102-24.997-19.335-20.965-39.327-42.647-67.263-31.529-35.995 14.279-61.406 63.536-85.982 111.16-22.958 44.51-46.704 90.52-79.181 108.639-37.2 20.746-67.598-43.602-96.998-105.869-20.074-42.514-39.039-82.668-60.082-97.817-30.389-21.882-54.422 2.092-77.659 25.254-25.493 25.407-51.845 51.684-86.99 17.193C54.562 292.55 26.4 245.508 0 195.592v7.097c26.035 48.942 53.846 94.904 86.486 126.94 36.303 35.617 63.245 8.749 89.3-17.212 23.798-23.726 46.272-46.144 75.614-25.016 20.462 14.729 39.216 54.454 59.074 96.509 25.944 54.94 52.651 111.504 84.532 111.495 4.892 0 9.908-1.328 15.058-4.203 33.115-18.473 57.096-64.95 80.29-109.909 25.425-49.277 49.44-95.811 84.676-109.804 27.024-10.746 46.594 10.487 65.516 31.004 20.808 22.56 42.326 45.885 73.166 25.349 30.816-20.516 60.475-47.719 91.877-76.517 52.037-47.719 105.845-97.062 164.875-112.975 44.926-12.102 93.506 5.884 140.506 23.296 36.04 13.344 73.28 27.126 108.5 27.126l2.25-.019c56.8-.964 113.68-19.542 168.69-37.528l49.59-15.74v-5.196c-16.8 5.014-33.48 10.449-50.01 15.855zm-2.43-36.531c-51.16 19.807-104.06 40.283-156.1 41.286-35.51.716-73.41-14.994-109.94-30.15-45.01-18.7-91.56-37.991-135.01-27.266-58.992 14.602-113.107 62.821-165.446 109.464-33.768 30.093-65.669 58.515-98.741 78.551-30.681 18.594-49.526-6.666-69.48-33.407-18.749-25.136-38.16-51.103-68.256-40.063-38.88 14.278-66 64.378-92.232 112.836-24.321 44.915-49.464 91.367-83.673 107.66-37.037 17.677-66.264-47.083-94.522-109.675-19.814-43.883-40.301-89.266-63.211-104.89-31.786-21.698-56.424 4.727-80.232 30.264-26.986 28.947-52.474 56.289-88.474 22.424C51.106 237.347 24.672 194.514 0 148.559v7.086c24.317 44.982 50.424 86.764 81.139 115.663 37.191 35.001 64.45 5.74 90.807-22.539 24.393-26.167 47.443-50.883 78.163-29.93 22.272 15.185 42.528 60.061 62.121 103.457 25.44 56.337 51.639 114.364 84.005 114.364 4.239 0 8.587-.993 13.051-3.123 34.868-16.607 60.269-63.518 84.831-108.901 25.963-47.942 52.805-97.527 90.936-111.537 29.088-10.715 48.024 14.708 66.345 39.271 19.575 26.234 39.826 53.376 71.684 34.056 33.22-20.132 65.193-48.611 99.038-78.77 52.166-46.481 106.109-94.548 164.712-109.054 43.048-10.639 89.368 8.595 134.168 27.189 36.66 15.223 74.68 30.847 110.49 30.265 52.27-1.003 105.29-21.526 156.57-41.381L1440 95.307v-5.234c-17.61 6.084-35.1 12.836-52.44 19.54zM326.825 120.762c20.819 60.07 42.297 122.054 82.125 122.045 2.623 0 5.327-.268 8.113-.824 40.823-8.139 72.22-59.801 102.58-109.749C551.3 80.141 584.033 26.286 628.174 18.711c34.597-5.928 50.762 31.514 66.451 67.711 16.232 37.441 33.026 76.166 69.592 61.314 41.87-16.978 84.099-51.355 124.936-84.603 27.468-22.36 55.436-45.083 83.84-63.134h-8.397c-25.873 17.218-51.362 37.94-76.423 58.346-40.731 33.161-82.841 67.443-124.47 84.316-35.092 14.22-50.651-21.642-67.113-59.62-16.122-37.183-32.791-75.631-68.637-69.483-44.948 7.709-77.998 62.09-109.962 114.682-31.446 51.738-61.148 100.614-101.182 108.6-43.565 8.705-65.086-53.338-87.846-119.019C312.486 70.287 295.504 21.479 269.319 0h-7.705c29.389 17.505 47.586 69.904 65.211 120.762zM1396.17 74.231c-50.59 20.964-102.89 42.636-154.15 43.23-.36.009-.73.009-1.1.009-33.34 0-70.3-17.318-106.05-34.082-44.31-20.754-90.13-42.216-130.21-31.652-56.449 14.86-110.233 60.644-162.246 104.917-37.228 31.69-72.393 61.629-108.604 81.321-32.04 17.414-49.868-11.386-68.736-41.89-17.967-29.021-36.519-59.027-68.333-49.449-41.122 12.429-70.287 63.734-98.487 113.356-25.963 45.679-52.809 92.899-88.665 108.304-37.527 16.104-65.511-49.612-92.578-113.155-20.203-47.431-41.093-96.468-66.067-112.352-33.341-21.184-58.637 7.98-83.088 36.197-27.437 31.662-53.362 61.553-90.427 28.38C47.976 180.985 23.093 142.042 0 99.798v6.984c22.757 41.307 47.323 79.284 76.363 105.291 38.295 34.293 66 2.315 92.794-28.61 25.065-28.935 48.744-56.252 81-35.747 24.264 15.434 44.913 63.897 64.877 110.763 24.648 57.86 50.04 117.48 83.04 117.48 3.907 0 7.924-.842 12.057-2.612 36.523-15.682 63.624-63.371 89.837-109.481 27.922-49.124 56.798-99.922 97.162-112.112 30.652-9.272 48.777 20.026 66.307 48.349 18.552 29.977 37.757 60.96 71.059 42.856 36.379-19.787 73.262-51.19 108.936-81.551 51.854-44.139 105.47-89.78 161.568-104.553 39.65-10.429 85.2 10.908 129.27 31.566 35.9 16.821 73.01 34.216 106.65 34.216l1.12-.009c51.51-.594 103.95-22.323 154.66-43.335L1440 61.84v-5.272c-14.71 5.617-29.33 11.654-43.83 17.663zm8.44-35.882c-49.62 21.902-100.93 44.542-151.2 44.907h-.59c-33.1 0-69.66-19.656-105.02-38.659-41.86-22.497-85.1-45.771-123.12-36.72-55.33 13.168-108.802 57.729-160.512 100.831-38.275 31.912-77.861 64.899-116.736 83.393-33.446 15.884-50.179-16.488-67.877-50.771-17.102-33.121-34.785-67.365-68.486-59.37-42.331 10.049-73.181 63.171-103.013 114.546-29.616 50.982-57.581 99.143-95.779 108.5-42.725 10.481-65.16-50.55-88.882-115.16-19.272-52.48-39.197-106.753-71.136-121.15-32.304-14.55-57.777 15.289-82.411 44.158-28.109 32.949-57.182 67.01-96.643 34.043C45.278 123.546 21.744 88.246 0 49.482v6.949c21.432 37.862 44.674 72.231 72.211 95.245 40.651 34.004 70.287-.758 98.947-34.349 25.311-29.666 49.215-57.681 80.53-43.582 30.994 13.983 50.63 67.451 69.614 119.172 21.408 58.295 43.484 118.424 81.764 118.424 3.067 0 6.24-.384 9.523-1.19 38.981-9.55 68.553-60.474 97.157-109.719 29.539-50.867 60.086-103.461 101.625-113.318 32.482-7.659 49.714 25.654 66.379 57.94 17.424 33.745 35.424 68.651 70.282 52.086 39.077-18.591 78.758-51.654 117.134-83.643 51.543-42.968 104.847-87.394 159.814-100.476 37.45-8.926 80.53 14.204 122.15 36.576 35.74 19.214 72.7 38.822 106.29 38.841 50.54-.365 101.99-23.073 151.75-45.022L1440 28.329v-5.298l-35.39 15.318zm11.11-36.209c-48.66 23.272-98.96 47.337-148.92 47.337-.55 0-1.11 0-1.67-.01-32.8-.347-68.52-23.263-103.08-45.415L1155.72 0h-8.82l14.38 9.164c34.74 22.272 70.66 45.296 103.84 45.653l1.68.01c50.26 0 100.7-24.124 149.5-47.476L1431.75 0h-11.55l-4.48 2.14zM170.364 47.437C185.541 28.655 201.044 9.555 218.136 0h-8.577c-14.308 10.547-27.546 26.902-40.558 43.016-30.301 37.506-58.908 72.952-99.38 41.937C43.894 65.246 22.022 34.482 1.858 0H0v3.67c20.394 34.915 42.545 66.103 68.7 86.147 41.653 31.901 72.161-5.856 101.665-42.38zM151.421 0h-5.28c-24.878 27.415-49.828 44.456-78.639 20.755C60.183 14.74 53.238 7.645 46.471 0h-5.242c8.101 9.634 16.494 18.254 25.276 25.482C97.948 51.343 124.634 30.635 151.421 0zm183.933 45.795c19.576 61.306 39.771 124.571 80.74 124.561 2.532 0 5.145-.237 7.839-.731 43.07-7.975 75.96-60.252 107.767-110.818C544.502 38.466 557.471 17.879 571.203 0h-4.646c-12.615 16.957-24.625 35.967-36.477 54.805-31.505 50.091-64.089 101.874-106.386 109.706-44.743 8.25-64.851-54.748-86.149-121.463L323.281 0h-3.198c5.346 14.761 10.338 30.33 15.271 45.795zM1282.1 10.82a139.96 139.96 0 0 1-3.36-.036c-13.26-.296-26.89-4.45-40.67-10.784h-10.21c17.19 9.026 34.27 15.261 50.85 15.629l3.4.036c25.94 0 51.92-6.424 77.68-15.665h-14.55c-21 6.567-42.09 10.82-63.14 10.82zM712.548 25.355c19.215 42.94 37.339 83.521 69.535 69.855 38.744-16.415 77.934-46.735 119.428-78.832L922.769 0h-7.177l-15.028 11.593c-41.393 32.012-80.487 62.265-119.024 78.595-30.682 13.01-48.354-26.458-67.045-68.238L704.471 0h-3.586c3.99 8.227 7.846 16.815 11.663 25.355zm89.235 10.621c-21.416 7.885-35.977-9.571-48.61-35.976h-3.564c13.485 29.49 28.969 49.715 52.642 41.063C826.418 32.211 850.708 17.447 875.544 0h-7.912c-22.277 15.214-44.137 28.024-65.849 35.976zM425.468 95.948c2.021 0 4.099-.143 6.221-.448 40.506-5.683 72.857-49.245 103.532-95.5h-4.291c-29.562 44.238-60.843 84.953-99.424 90.369-37.482 5.236-57.31-37.241-74.628-90.369h-3.062c16.603 51.301 36.296 95.948 71.652 95.948zm15.668-83.713C427.842 13.519 416.848 8.812 407.376 0h-5.585c9.758 11.036 21.189 17.623 35.043 17.623a43.67 43.67 0 0 0 4.432-.221C455.983 15.974 469.718 9.636 482.748 0h-8.014c-10.674 6.721-21.827 11.094-33.598 12.235z"/></svg>