<?xml version="1.0" encoding="utf-8"?>
<svg viewBox="12.695 16.244 95.076 29.357" width="95.076" height="29.357" xmlns="http://www.w3.org/2000/svg">
  <defs>
    <clipPath id="clip0">
      <rect width="120" height="61" fill="white"/>
    </clipPath>
  </defs>
  <g clip-path="url(#clip0)" style="" transform="matrix(0.473745, 0, 0, 0.473745, 51.041813, 16.244314)">
    <path d="M64.6242 36.9402C64.6242 38.1563 65.6092 39.1573 66.8444 39.1573C68.06 39.1573 69.0606 38.1563 69.0606 36.9402C69.0606 35.7202 68.0795 34.7192 66.8444 34.7192C65.6248 34.7192 64.6242 35.7202 64.6242 36.9402ZM66.1095 36.9402C66.1095 36.5374 66.4417 36.2051 66.8444 36.2051C67.243 36.2051 67.5792 36.5374 67.5792 36.9402C67.5948 37.3547 67.2587 37.6714 66.8444 37.6714C66.4417 37.6714 66.1095 37.339 66.1095 36.9402ZM69.8111 33.984C69.8111 35.6224 71.1284 36.9402 72.7623 36.9402C74.4001 36.9402 75.7173 35.6224 75.7173 33.984C75.7173 32.3496 74.3805 31.0318 72.7623 31.0318C71.1284 31.0318 69.8111 32.3496 69.8111 33.984ZM71.2808 33.984C71.2808 33.1668 71.9453 32.5177 72.7623 32.5177C73.5831 32.5177 74.2476 33.1863 74.2476 33.984C74.232 34.8013 73.5636 35.4699 72.7623 35.4699C71.9453 35.4699 71.2808 34.8013 71.2808 33.984ZM77.1831 14.7808C77.1831 16.4192 78.5004 17.7369 80.1343 17.7369C81.7681 17.7369 83.0893 16.4192 83.0893 14.7808C83.1049 13.1463 81.7681 11.8285 80.1343 11.8285C78.5004 11.8285 77.1831 13.1463 77.1831 14.7808ZM77.918 9.61141C77.918 7.97692 76.6007 6.65917 74.9668 6.65917C73.333 6.65917 72.0118 7.97692 72.0118 9.61141C72.0118 11.2459 73.3486 12.5637 74.9668 12.5637C76.6007 12.5637 77.918 11.2459 77.918 9.61141ZM72.0118 19.954C72.0118 21.5885 73.333 22.9063 74.9668 22.9063C76.6007 22.9063 77.918 21.5885 77.918 19.954C77.9336 18.3195 76.6007 17.0018 74.9668 17.0018C73.333 17.0018 72.0118 18.3195 72.0118 19.954ZM66.86 14.7808C66.86 16.4192 68.1773 17.7369 69.8111 17.7369C71.445 17.7369 72.7623 16.4192 72.7623 14.7808C72.7623 13.1463 71.4294 11.8285 69.8111 11.8285C68.1773 11.8285 66.86 13.1463 66.86 14.7808ZM45.4281 0C44.3961 0 43.3799 0.101667 42.3948 0.316731C42.1759 0.367564 41.961 0.418397 41.7421 0.469231C41.3942 0.551346 41.0424 0.668654 40.6945 0.785962C40.1746 0.950192 39.6939 1.16917 39.2092 1.38423C39.0919 1.43506 38.9903 1.4859 38.8769 1.55237C38.7597 1.60321 38.658 1.66968 38.5408 1.72051C38.3414 1.81827 38.1421 1.93558 37.9584 2.05288C37.8255 2.11936 37.7082 2.20147 37.5909 2.2875C37.5245 2.33833 37.458 2.36962 37.376 2.42045C36.9069 2.72154 36.4574 3.05391 36.0391 3.40583C35.9571 3.48795 35.8554 3.55442 35.7733 3.63654C35.5075 3.87115 35.2378 4.10577 35.0072 4.35603C34.4873 4.87218 33.987 5.43917 33.5571 6.04135C33.4711 6.1391 33.389 6.25641 33.3225 6.37372C33.0724 6.72564 32.8535 7.0932 32.6385 7.45686C32.572 7.55853 32.5212 7.66019 32.4704 7.77359C32.2554 8.1607 32.0717 8.55955 31.888 8.9584C31.5362 9.76 31.2548 10.5968 31.0554 11.461C30.8053 12.5285 30.6685 13.6468 30.6685 14.7808C30.6685 15.9187 30.8053 17.0331 31.0554 18.1045C31.1688 18.5698 31.3056 19.0547 31.4541 19.5044C32.9199 23.8408 36.3753 27.2936 40.7102 28.7638C41.1597 28.9124 41.6287 29.0454 42.1095 29.1627C43.1766 29.4129 44.2945 29.5459 45.4281 29.5459H74.6502C75.2639 30.7307 76.4991 31.5479 77.9336 31.5479C79.9349 31.5479 81.5688 29.9487 81.6196 27.9622C86.4235 25.5262 89.7421 20.521 89.7421 14.7808C89.7421 6.65917 83.1049 0 74.9668 0H45.4281V0ZM48.3831 17.7369V19.954C48.3831 20.7713 48.047 21.5064 47.5154 22.0382C46.9799 22.5739 46.245 22.9063 45.4281 22.9063C43.8137 22.9063 42.4769 21.5729 42.4769 19.954V17.7369H40.2606C39.4437 17.7369 38.7088 17.4006 38.1733 16.8688C37.6417 16.3331 37.3095 15.6019 37.3095 14.7808C37.3095 13.1658 38.6424 11.8285 40.2606 11.8285H42.4769V9.61141C42.4769 8.79417 42.8131 8.05904 43.3447 7.52333C43.8802 6.99154 44.6111 6.65917 45.4281 6.65917C47.0463 6.65917 48.3831 7.99256 48.3831 9.61141V11.8285H50.5994C52.2176 11.8285 53.5505 13.1658 53.5505 14.7808C53.5505 16.3996 52.2333 17.7369 50.5994 17.7369H48.3831ZM79.4502 26.5937C79.4307 27.3874 79.4189 27.8254 79.4189 27.9114C79.4033 28.713 78.7505 29.3465 77.9492 29.3465C77.402 29.3465 76.9017 29.0454 76.632 28.5449C76.5929 28.4667 76.3857 28.0678 76.0144 27.3444H60.2072V2.22103H74.9668C76.6515 2.22103 78.2854 2.5534 79.8372 3.2025C81.3382 3.83987 82.6711 4.75487 83.8398 5.9084C84.989 7.05801 85.9075 8.41096 86.5408 9.9125C87.1896 11.461 87.5219 13.0994 87.5219 14.7808C87.5219 17.1347 86.8574 19.4379 85.6066 21.4243C84.387 23.3755 82.6554 24.9435 80.6189 25.9954C80.4626 26.0736 80.0756 26.273 79.4502 26.5937ZM77.1831 14.7808C77.1831 16.4192 78.5004 17.7369 80.1343 17.7369C81.7681 17.7369 83.0893 16.4192 83.0893 14.7808C83.1049 13.1463 81.7681 11.8285 80.1343 11.8285C78.5004 11.8285 77.1831 13.1463 77.1831 14.7808ZM77.918 9.61141C77.918 7.97692 76.6007 6.65917 74.9668 6.65917C73.333 6.65917 72.0118 7.97692 72.0118 9.61141C72.0118 11.2459 73.3486 12.5637 74.9668 12.5637C76.6007 12.5637 77.918 11.2459 77.918 9.61141ZM72.0118 19.954C72.0118 21.5885 73.333 22.9063 74.9668 22.9063C76.6007 22.9063 77.918 21.5885 77.918 19.954C77.9336 18.3195 76.6007 17.0018 74.9668 17.0018C73.333 17.0018 72.0118 18.3195 72.0118 19.954ZM66.86 14.7808C66.86 16.4192 68.1773 17.7369 69.8111 17.7369C71.445 17.7369 72.7623 16.4192 72.7623 14.7808C72.7623 13.1463 71.4294 11.8285 69.8111 11.8285C68.1773 11.8285 66.86 13.1463 66.86 14.7808ZM66.86 14.7808C66.86 16.4192 68.1773 17.7369 69.8111 17.7369C71.445 17.7369 72.7623 16.4192 72.7623 14.7808C72.7623 13.1463 71.4294 11.8285 69.8111 11.8285C68.1773 11.8285 66.86 13.1463 66.86 14.7808ZM77.1831 14.7808C77.1831 16.4192 78.5004 17.7369 80.1343 17.7369C81.7681 17.7369 83.0893 16.4192 83.0893 14.7808C83.1049 13.1463 81.7681 11.8285 80.1343 11.8285C78.5004 11.8285 77.1831 13.1463 77.1831 14.7808ZM72.0118 19.954C72.0118 21.5885 73.333 22.9063 74.9668 22.9063C76.6007 22.9063 77.918 21.5885 77.918 19.954C77.9336 18.3195 76.6007 17.0018 74.9668 17.0018C73.333 17.0018 72.0118 18.3195 72.0118 19.954ZM72.0118 9.61141C72.0118 11.2459 73.333 12.5637 74.9668 12.5637C76.6007 12.5637 77.918 11.2459 77.918 9.61141C77.9336 7.97692 76.6007 6.65917 74.9668 6.65917C73.333 6.65917 72.0118 7.97692 72.0118 9.61141Z" fill="white"/>
    <path d="M118.843 53.5714C119.246 53.1061 119.461 52.4726 119.461 51.6866C119.461 51.1705 119.379 50.7364 119.195 50.3689C119.027 50.0209 118.777 49.7198 118.476 49.5008C118.159 49.2857 117.792 49.1176 117.362 49.0198C116.928 48.9182 116.459 48.8673 115.943 48.8673H112.808V58.8972H114.074V54.6584H115.892L118.311 58.8972H119.746L117.194 54.5411C118.026 54.2088 118.577 53.8842 118.843 53.5714ZM114.074 53.6418V49.9192H115.759C116.541 49.9192 117.143 50.0521 117.561 50.318C117.975 50.5879 118.194 51.0532 118.194 51.7062C118.194 52.3553 117.975 52.8402 117.561 53.1569C117.143 53.4736 116.541 53.6418 115.759 53.6418H114.074ZM104.803 54.1892H108.606V53.1061H104.803V49.9544H109.306V48.8869H103.532V58.9128H109.454V57.8257H104.803V54.1892ZM96.129 54.2244C96.0118 54.5724 95.8945 54.9243 95.7773 55.2763C95.6639 55.6243 95.5623 55.9762 95.4294 56.3242H95.3629C95.2457 55.9762 95.1128 55.6243 94.9955 55.2763C94.8782 54.9243 94.761 54.5724 94.6281 54.2244C94.4991 53.8686 93.8619 52.0894 92.7088 48.8869H91.1922V58.9128H92.3453V53.3915C92.3453 52.9379 92.3258 52.457 92.2945 51.9056C92.2593 51.3699 92.2281 50.8694 92.1929 50.4197H92.2593L93.0606 52.6877L94.9447 57.8766H95.7773L97.6808 52.6877L98.4821 50.4197H98.5486C98.5134 50.8694 98.4821 51.3543 98.447 51.9056C98.3961 52.4374 98.3805 52.9379 98.3805 53.3915V58.9128H99.5649V48.8869H98.0131C96.8834 52.0894 96.2541 53.8686 96.129 54.2244ZM83.7382 48.8869L80.3531 58.9128H81.6548L82.6202 55.8589H86.2711L87.2248 58.9128H88.5733L85.1727 48.8869H83.7382ZM83.3864 53.2898C83.5701 52.7229 83.7382 52.1715 83.9062 51.6202C84.0704 51.0688 84.2229 50.5018 84.3714 49.9192H84.4378C84.6059 50.5018 84.7701 51.0688 84.9225 51.6202C85.0906 52.1715 85.2548 52.7385 85.4385 53.2898C85.4698 53.3915 85.6261 53.9038 85.9075 54.8227H82.9212C83.2027 53.9038 83.3551 53.3915 83.3864 53.2898ZM74.8339 54.7757H76.9486V57.3956C76.7492 57.5755 76.4834 57.728 76.1668 57.8257C75.8502 57.9274 75.5141 57.9939 75.1505 57.9939C74.615 57.9939 74.1303 57.8961 73.716 57.7123C73.2978 57.509 72.9655 57.2431 72.6802 56.8755C72.3988 56.5275 72.1799 56.0935 72.047 55.593C71.8984 55.0925 71.832 54.5255 71.832 53.892C71.832 53.2742 71.9141 52.7072 72.0626 52.2067C72.2307 51.7062 72.4457 51.2878 72.731 50.9359C73.0124 50.5879 73.3642 50.318 73.7629 50.1186C74.1655 49.9348 74.6307 49.8371 75.131 49.8371C75.6509 49.8371 76.0652 49.9192 76.4014 50.103C76.7336 50.2868 77.0346 50.5018 77.2847 50.7716C77.3551 50.6895 77.9141 50.0365 77.9844 49.9544C77.8359 49.8019 77.6834 49.6533 77.4841 49.5008C77.3004 49.3522 77.0854 49.2193 76.8509 49.102C76.6163 48.9846 76.3505 48.8869 76.0496 48.8165C75.7486 48.75 75.432 48.7188 75.0997 48.7188C74.4313 48.7188 73.8137 48.8361 73.2626 49.0668C72.7154 49.3014 72.215 49.6533 71.7968 50.103C71.3981 50.5527 71.0815 51.104 70.847 51.7375C70.6124 52.3905 70.4952 53.1061 70.4952 53.9077C70.4952 54.7249 70.6124 55.46 70.8313 56.0935C71.0619 56.7426 71.3629 57.2783 71.7616 57.728C72.1642 58.1777 72.6294 58.51 73.1961 58.7446C73.7473 58.9793 74.3649 59.0966 75.0333 59.0966C75.6978 59.0966 76.2997 58.9793 76.8352 58.7603C77.3668 58.5452 77.7851 58.2598 78.1173 57.9274V53.7082H74.8339V54.7757ZM65.0072 51.0688C64.8743 51.4559 64.7414 51.8196 64.6242 52.1715C64.4913 52.5234 64.374 52.9066 64.2411 53.2898H64.1746C64.0417 52.9066 63.9088 52.5391 63.7916 52.1715C63.6743 51.8196 63.5414 51.4559 63.4242 51.0688C63.3772 50.932 63.131 50.2359 62.6893 48.9846H59.8711L62.8574 55.4913V58.9128H65.4919V55.4913L68.4782 48.9846H65.7421C65.3043 50.2359 65.058 50.932 65.0072 51.0688ZM55.0867 52.6877H52.116V48.9846H49.4815V58.9128H52.116V54.9752H55.0867V58.9128H57.7056V48.9846H55.0867V52.6877ZM38.9238 51.1861H41.5623V58.9284H44.1968V51.1861H46.8313V48.9846H38.9238V51.1861ZM34.7883 48.9846H32.1538V58.9128H38.5408V56.7113H34.7883V48.9846ZM23.8007 48.9846L20.7792 58.9128H23.4645L23.9492 56.8091H26.7323L27.217 58.9128H30.004L26.9668 48.9846H23.8007ZM24.5825 54.0914C24.6997 53.6066 24.8326 53.0904 24.9499 52.5391C25.0672 51.9877 25.1844 51.4559 25.3017 50.9359H25.3681C25.4815 51.4364 25.6183 51.9721 25.7317 52.5234C25.8489 53.0904 25.9818 53.6066 26.0991 54.0719C26.1108 54.1188 26.1655 54.3456 26.2672 54.7562L24.4144 54.7757C24.516 54.3652 24.5707 54.1345 24.5825 54.0914ZM14.9434 54.94H18.1799V52.7385H14.9434V51.1705H18.7271V48.969H12.3088V58.8972H18.8795V56.6918H14.9434V56.7113V54.94ZM6.26976 52.6877H3.30298V48.9846H0.668457V58.9128H3.30298V54.9752H6.26976V58.9128H8.90429V48.9846H6.26976V52.6877Z" fill="white"/>
  </g>
  <text style="fill: rgb(255, 255, 255); font-family: Arial, sans-serif; font-size: 6.5px; font-weight: 700; text-transform: capitalize; white-space: pre;" x="12.695" y="44.196">WELCOME</text>
</svg>